<svg width="1264" height="636" viewBox="0 0 1264 636" fill="none" xmlns="http://www.w3.org/2000/svg">
<g filter="url(#filter0_b_1_2048)">
<rect x="-0.00158691" y="46.2588" width="894.956" height="588.96" rx="105.289" fill="white" fill-opacity="0.2"/>
<rect x="3.28869" y="49.5491" width="888.375" height="582.379" rx="101.999" stroke="url(#paint0_linear_1_2048)" stroke-width="6.58056"/>
<path d="M156.158 176.858C168.926 187.171 175.311 206.63 175.311 235.236C175.311 256.599 171.382 273.419 163.524 285.696C155.544 298.219 143.819 304.48 128.35 304.48C117.055 304.48 107.662 301.472 100.173 295.457C92.6841 289.318 87.9574 280.969 85.993 270.411H96.8584C98.4545 278.023 101.954 283.977 107.356 288.274C112.88 292.571 119.878 294.72 128.35 294.72C140.382 294.72 149.405 289.625 155.421 279.435C161.437 269.122 164.445 254.45 164.445 235.42C164.445 232.719 164.384 231.001 164.261 230.264C161.437 237.63 156.649 243.585 149.896 248.127C143.144 252.67 135.778 254.941 127.797 254.941C114.661 254.941 104.163 250.828 96.306 242.603C88.3257 234.254 84.3356 223.818 84.3356 211.295C84.3356 198.65 88.3257 188.153 96.306 179.804C104.163 171.578 114.722 167.465 127.981 167.465C139.277 167.465 148.669 170.596 156.158 176.858ZM104.777 235.42C110.793 241.805 118.528 244.997 127.981 244.997C137.558 244.997 145.354 241.866 151.37 235.605C157.508 229.22 160.578 221.117 160.578 211.295C160.578 201.474 157.508 193.309 151.37 186.802C145.354 180.541 137.558 177.41 127.981 177.41C118.651 177.41 110.916 180.541 104.777 186.802C98.7614 193.186 95.7535 201.351 95.7535 211.295C95.7535 221.24 98.7614 229.282 104.777 235.42ZM261.122 176.858C273.89 187.171 280.274 206.63 280.274 235.236C280.274 256.599 276.346 273.419 268.488 285.696C260.508 298.219 248.783 304.48 233.314 304.48C222.019 304.48 212.626 301.472 205.137 295.457C197.648 289.318 192.921 280.969 190.957 270.411H201.822C203.418 278.023 206.917 283.977 212.319 288.274C217.844 292.571 224.842 294.72 233.314 294.72C245.345 294.72 254.369 289.625 260.385 279.435C266.401 269.122 269.409 254.45 269.409 235.42C269.409 232.719 269.348 231.001 269.225 230.264C266.401 237.63 261.613 243.585 254.86 248.127C248.108 252.67 240.741 254.941 232.761 254.941C219.624 254.941 209.127 250.828 201.27 242.603C193.29 234.254 189.299 223.818 189.299 211.295C189.299 198.65 193.29 188.153 201.27 179.804C209.127 171.578 219.686 167.465 232.945 167.465C244.241 167.465 253.633 170.596 261.122 176.858ZM209.741 235.42C215.757 241.805 223.492 244.997 232.945 244.997C242.522 244.997 250.318 241.866 256.334 235.605C262.472 229.22 265.542 221.117 265.542 211.295C265.542 201.474 262.472 193.309 256.334 186.802C250.318 180.541 242.522 177.41 232.945 177.41C223.615 177.41 215.88 180.541 209.741 186.802C203.725 193.186 200.717 201.351 200.717 211.295C200.717 221.24 203.725 229.282 209.741 235.42ZM355.727 247.207C346.396 247.207 339.214 243.708 334.18 236.71C329.269 229.711 326.814 220.012 326.814 207.612C326.814 195.212 329.269 185.513 334.18 178.515C339.214 171.394 346.396 167.834 355.727 167.834C365.18 167.834 372.363 171.333 377.273 178.331C382.184 185.329 384.64 195.089 384.64 207.612C384.64 220.135 382.184 229.896 377.273 236.894C372.363 243.769 365.18 247.207 355.727 247.207ZM368.986 300.613H358.857L428.838 169.491H438.967L368.986 300.613ZM341.546 230.816C344.739 236.341 349.465 239.104 355.727 239.104C362.111 239.104 366.838 236.341 369.907 230.816C373.099 225.169 374.695 217.434 374.695 207.612C374.695 197.422 373.099 189.626 369.907 184.224C366.715 178.699 361.988 175.937 355.727 175.937C349.465 175.937 344.739 178.699 341.546 184.224C338.354 189.994 336.758 197.79 336.758 207.612C336.758 217.434 338.354 225.169 341.546 230.816ZM442.098 302.27C432.767 302.27 425.585 298.771 420.551 291.773C415.64 284.775 413.185 275.076 413.185 262.676C413.185 250.276 415.64 240.577 420.551 233.579C425.585 226.458 432.767 222.898 442.098 222.898C451.551 222.898 458.734 226.397 463.644 233.395C468.555 240.393 471.011 250.153 471.011 262.676C471.011 275.199 468.555 284.959 463.644 291.958C458.734 298.833 451.551 302.27 442.098 302.27ZM427.917 285.88C430.987 291.405 435.714 294.167 442.098 294.167C448.482 294.167 453.209 291.405 456.278 285.88C459.47 280.233 461.066 272.498 461.066 262.676C461.066 252.486 459.47 244.69 456.278 239.288C453.086 233.763 448.359 231.001 442.098 231.001C435.714 231.001 430.987 233.763 427.917 239.288C424.725 245.058 423.129 252.854 423.129 262.676C423.129 272.498 424.725 280.233 427.917 285.88Z" fill="white" fill-opacity="0.72"/>
<path d="M109.992 454.672C100.649 454.672 93.2064 451.386 87.665 444.814C82.1236 438.177 79.3529 429.478 79.3529 418.718C79.3529 407.957 82.1236 399.258 87.665 392.621C93.2064 386.049 100.649 382.763 109.992 382.763C117.402 382.763 123.652 384.986 128.742 389.432C133.833 393.813 137.055 399.838 138.408 407.506H134.252C132.963 400.869 130.16 395.714 125.843 392.041C121.59 388.369 116.306 386.532 109.992 386.532C101.873 386.532 95.4616 389.464 90.7579 395.328C85.9897 401.256 83.6056 409.052 83.6056 418.718C83.6056 428.318 85.9897 436.083 90.7579 442.011C95.5261 447.939 101.937 450.903 109.992 450.903C116.564 450.903 122.106 448.841 126.616 444.717C131.126 440.593 133.801 434.987 134.638 427.9H138.794C137.892 436.147 134.832 442.655 129.612 447.423C124.329 452.256 117.788 454.672 109.992 454.672ZM150.724 453.126H146.761V384.309H150.724V453.126ZM164.945 395.714H160.789V386.919H164.945V395.714ZM164.848 453.126H160.885V403.253H164.848V453.126ZM216.86 427.996V429.446H176.943C177.136 436.083 178.843 441.27 182.065 445.007C185.287 448.744 189.701 450.613 195.307 450.613C199.688 450.613 203.329 449.389 206.228 446.94C209.128 444.427 210.997 441.012 211.834 436.695H215.894C214.927 442.043 212.607 446.328 208.935 449.55C205.262 452.707 200.687 454.286 195.21 454.286C188.315 454.286 182.871 451.902 178.876 447.134C174.881 442.365 172.883 436.051 172.883 428.19C172.883 420.264 174.848 413.949 178.779 409.246C182.645 404.477 188.025 402.093 194.92 402.093C201.879 402.093 207.292 404.51 211.158 409.342C214.959 414.304 216.86 420.522 216.86 427.996ZM194.92 405.766C189.572 405.766 185.319 407.538 182.162 411.082C179.069 414.626 177.361 419.523 177.039 425.773H212.704C212.382 419.652 210.642 414.787 207.485 411.179C204.392 407.57 200.204 405.766 194.92 405.766ZM245.977 402.093C251.647 402.093 256.029 403.704 259.122 406.926C262.214 410.148 263.761 414.755 263.761 420.747V453.126H259.798V421.134C259.798 416.108 258.542 412.274 256.029 409.632C253.516 406.99 249.94 405.67 245.3 405.67C240.854 405.67 237.02 407.313 233.799 410.599C230.577 413.885 228.934 418.814 228.869 425.387V453.126H224.907V403.253H228.676V414.078C230.094 410.341 232.317 407.409 235.345 405.283C238.373 403.157 241.917 402.093 245.977 402.093ZM292.46 403.253V406.733H279.992V442.881C279.992 445.265 280.604 447.037 281.828 448.197C283.117 449.292 285.147 449.84 287.917 449.84C290.366 449.84 291.88 449.808 292.46 449.743V453.126C289.496 453.255 287.821 453.319 287.434 453.319C279.831 453.319 276.029 449.936 276.029 443.171V406.733H267.427V403.253H276.029V389.142H279.992V403.253H292.46ZM315.292 454.286C308.977 454.286 304.08 452.836 300.601 449.936C297.186 447.037 295.317 443.01 294.995 437.855H299.054C299.763 446.489 305.176 450.806 315.292 450.806C325.408 450.806 330.466 447.295 330.466 440.271C330.466 437.436 329.5 435.245 327.567 433.699C325.634 432.088 322.348 430.864 317.708 430.026L312.199 429.156C306.786 428.254 302.824 426.708 300.311 424.517C297.798 422.262 296.541 419.201 296.541 415.335C296.541 411.211 298.088 407.989 301.181 405.67C304.338 403.285 308.687 402.093 314.229 402.093C326.407 402.093 332.818 407.023 333.463 416.881H329.403C329.081 413.08 327.696 410.244 325.247 408.376C322.863 406.507 319.19 405.573 314.229 405.573C309.912 405.573 306.529 406.411 304.08 408.086C301.696 409.761 300.504 412.145 300.504 415.238C300.504 418.202 301.503 420.457 303.5 422.004C305.562 423.55 308.913 424.742 313.552 425.58L318.965 426.45C324.377 427.416 328.308 428.995 330.756 431.186C333.269 433.312 334.526 436.276 334.526 440.078C334.526 444.653 332.786 448.164 329.307 450.613C325.891 453.062 321.22 454.286 315.292 454.286ZM107.285 563.672C98.2001 563.672 91.1123 561.61 86.0219 557.487C80.996 553.363 78.4508 547.338 78.3863 539.413H88.7282C88.9215 549.722 95.1717 554.877 107.479 554.877C112.569 554.877 116.467 553.91 119.174 551.977C121.944 549.98 123.33 547.113 123.33 543.375C123.33 540.347 122.202 538.027 119.947 536.416C117.692 534.741 113.632 533.259 107.769 531.97L101.873 530.714C94.7851 529.296 89.437 526.977 85.8286 523.755C82.2202 520.533 80.416 516.087 80.416 510.417C80.416 504.746 82.6068 500.236 86.9884 496.885C91.37 493.47 97.298 491.763 104.773 491.763C113.793 491.763 120.559 493.696 125.07 497.562C129.644 501.428 131.996 506.744 132.125 513.51H121.88C121.558 509.064 120.076 505.81 117.434 503.748C114.857 501.621 110.668 500.558 104.869 500.558C100.359 500.558 96.9114 501.396 94.5273 503.071C92.1432 504.746 90.9512 507.131 90.9512 510.223C90.9512 513.381 92.0144 515.765 94.1407 517.376C96.2671 519.116 100.198 520.598 105.932 521.822L111.925 523.078C119.786 524.754 125.424 527.17 128.839 530.327C132.319 533.485 134.058 537.737 134.058 543.085C134.058 549.464 131.674 554.49 126.906 558.163C122.202 561.836 115.662 563.672 107.285 563.672ZM183.814 554.684H186.52V562.126C185.103 562.319 183.524 562.416 181.784 562.416C178.691 562.416 176.372 561.868 174.825 560.773C173.343 559.613 172.441 557.809 172.119 555.36C168.768 560.644 163.356 563.286 155.881 563.286C150.404 563.286 146.055 561.997 142.833 559.42C139.676 556.778 138.097 553.137 138.097 548.498C138.097 539.477 144.348 534.322 156.848 533.034L164.194 532.26C166.771 531.938 168.64 531.294 169.799 530.327C171.024 529.296 171.636 527.846 171.636 525.978C171.636 523.465 170.83 521.661 169.219 520.565C167.673 519.405 165.063 518.826 161.391 518.826C157.396 518.826 154.528 519.502 152.789 520.855C151.049 522.144 150.05 524.464 149.792 527.814H140.224C140.932 516.667 147.988 511.093 161.391 511.093C174.535 511.093 181.108 515.99 181.108 525.785V552.171C181.108 553.846 182.01 554.684 183.814 554.684ZM157.331 555.747C161.455 555.747 164.87 554.587 167.576 552.267C170.283 549.948 171.636 546.662 171.636 542.409V537.19C170.412 538.221 168.35 538.897 165.45 539.219L158.491 539.993C154.754 540.444 152.08 541.346 150.469 542.699C148.858 543.987 148.053 545.824 148.053 548.208C148.053 550.592 148.826 552.461 150.372 553.814C151.983 555.103 154.303 555.747 157.331 555.747ZM213.439 512.253V520.179H203.387V550.141C203.387 551.623 203.806 552.718 204.643 553.427C205.546 554.072 207.028 554.394 209.089 554.394H213.439V562.126C211.312 562.319 209.347 562.416 207.543 562.416C202.839 562.416 199.36 561.514 197.105 559.71C194.849 557.905 193.722 555.006 193.722 551.011V520.179H185.7V512.253H193.722V497.949H203.387V512.253H213.439ZM229.502 505.198H219.643V494.856H229.502V505.198ZM229.405 562.126H219.74V512.253H229.405V562.126ZM257.233 563.382C243.38 563.382 236.098 557.68 235.39 546.275H245.055C245.441 549.754 246.569 552.203 248.438 553.621C250.306 555.038 253.27 555.747 257.33 555.747C264.675 555.747 268.348 553.427 268.348 548.788C268.348 546.79 267.575 545.244 266.028 544.149C264.482 543.053 261.711 542.151 257.716 541.442L252.594 540.476C242.026 538.543 236.743 533.581 236.743 525.591C236.743 521.145 238.45 517.634 241.865 515.056C245.28 512.414 249.984 511.093 255.977 511.093C269.701 511.093 276.725 516.667 277.047 527.814H267.672C267.478 524.464 266.447 522.112 264.579 520.759C262.71 519.341 259.843 518.632 255.977 518.632C252.884 518.632 250.5 519.212 248.824 520.372C247.149 521.532 246.311 523.175 246.311 525.301C246.311 527.234 247.052 528.749 248.534 529.844C250.016 530.875 252.368 531.713 255.59 532.357L260.809 533.227C266.931 534.387 271.344 536.126 274.051 538.446C276.757 540.766 278.11 543.987 278.11 548.111C278.11 552.944 276.274 556.713 272.601 559.42C268.928 562.062 263.805 563.382 257.233 563.382ZM308.309 501.138H303.959C299.642 501.138 297.484 503.329 297.484 507.711V512.253H307.922V520.179H297.484V562.126H287.818V520.179H279.796V512.253H287.818V507.711C287.818 497.916 292.812 493.019 302.8 493.019C303.766 493.019 305.602 493.116 308.309 493.309V501.138ZM353.919 554.684H356.625V562.126C355.208 562.319 353.629 562.416 351.889 562.416C348.796 562.416 346.477 561.868 344.93 560.773C343.448 559.613 342.546 557.809 342.224 555.36C338.873 560.644 333.461 563.286 325.986 563.286C320.509 563.286 316.16 561.997 312.938 559.42C309.781 556.778 308.202 553.137 308.202 548.498C308.202 539.477 314.452 534.322 326.953 533.034L334.298 532.26C336.876 531.938 338.745 531.294 339.904 530.327C341.129 529.296 341.741 527.846 341.741 525.978C341.741 523.465 340.935 521.661 339.324 520.565C337.778 519.405 335.168 518.826 331.496 518.826C327.501 518.826 324.633 519.502 322.893 520.855C321.154 522.144 320.155 524.464 319.897 527.814H310.329C311.037 516.667 318.093 511.093 331.496 511.093C344.64 511.093 351.213 515.99 351.213 525.785V552.171C351.213 553.846 352.115 554.684 353.919 554.684ZM327.436 555.747C331.56 555.747 334.975 554.587 337.681 552.267C340.388 549.948 341.741 546.662 341.741 542.409V537.19C340.516 538.221 338.455 538.897 335.555 539.219L328.596 539.993C324.859 540.444 322.185 541.346 320.574 542.699C318.963 543.987 318.157 545.824 318.157 548.208C318.157 550.592 318.931 552.461 320.477 553.814C322.088 555.103 324.408 555.747 327.436 555.747ZM382.548 563.286C375.46 563.286 369.725 560.902 365.344 556.134C360.962 551.365 358.771 545.051 358.771 537.19C358.771 529.264 360.962 522.917 365.344 518.149C369.661 513.445 375.395 511.093 382.548 511.093C388.669 511.093 393.695 512.769 397.626 516.119C401.621 519.47 404.005 523.98 404.778 529.651H394.919C394.275 526.364 392.825 523.852 390.57 522.112C388.379 520.372 385.705 519.502 382.548 519.502C378.36 519.502 375.009 521.049 372.496 524.141C370.047 527.17 368.823 531.519 368.823 537.19C368.823 542.86 370.047 547.241 372.496 550.334C375.009 553.363 378.36 554.877 382.548 554.877C385.77 554.877 388.508 553.975 390.763 552.171C393.019 550.367 394.436 547.757 395.016 544.342H404.875C404.101 550.141 401.685 554.748 397.626 558.163C393.566 561.578 388.54 563.286 382.548 563.286ZM433.063 512.253V520.179H423.011V550.141C423.011 551.623 423.43 552.718 424.268 553.427C425.17 554.072 426.652 554.394 428.714 554.394H433.063V562.126C430.937 562.319 428.972 562.416 427.167 562.416C422.464 562.416 418.984 561.514 416.729 559.71C414.474 557.905 413.346 555.006 413.346 551.011V520.179H405.324V512.253H413.346V497.949H423.011V512.253H433.063ZM449.126 505.198H439.268V494.856H449.126V505.198ZM449.03 562.126H439.364V512.253H449.03V562.126ZM498.701 556.134C494.126 560.902 488.166 563.286 480.82 563.286C473.475 563.286 467.514 560.902 462.939 556.134C458.365 551.365 456.077 545.051 456.077 537.19C456.077 529.264 458.365 522.917 462.939 518.149C467.45 513.445 473.41 511.093 480.82 511.093C488.23 511.093 494.19 513.445 498.701 518.149C503.211 522.853 505.467 529.2 505.467 537.19C505.467 545.115 503.211 551.43 498.701 556.134ZM470.092 550.238C472.734 553.395 476.31 554.974 480.82 554.974C485.331 554.974 488.875 553.395 491.452 550.238C494.094 547.08 495.415 542.731 495.415 537.19C495.415 531.648 494.094 527.299 491.452 524.141C488.875 520.984 485.331 519.405 480.82 519.405C476.31 519.405 472.734 520.984 470.092 524.141C467.45 527.299 466.129 531.648 466.129 537.19C466.129 542.731 467.45 547.08 470.092 550.238ZM537.478 511.093C542.955 511.093 547.239 512.64 550.332 515.733C553.425 518.761 554.972 523.078 554.972 528.684V562.126H545.306V530.037C545.306 523.078 541.795 519.599 534.771 519.599C531.55 519.599 528.65 520.823 526.073 523.272C523.495 525.785 522.206 529.361 522.206 534V562.126H512.541V512.253H521.82V519.695C525.621 513.961 530.841 511.093 537.478 511.093Z" fill="white"/>
</g>
<defs>
<filter id="filter0_b_1_2048" x="-46.0655" y="0.194901" width="987.083" height="681.087" filterUnits="userSpaceOnUse" color-interpolation-filters="sRGB">
<feFlood flood-opacity="0" result="BackgroundImageFix"/>
<feGaussianBlur in="BackgroundImageFix" stdDeviation="23.0319"/>
<feComposite in2="SourceAlpha" operator="in" result="effect1_backgroundBlur_1_2048"/>
<feBlend mode="normal" in="SourceGraphic" in2="effect1_backgroundBlur_1_2048" result="shape"/>
</filter>
<linearGradient id="paint0_linear_1_2048" x1="1307.88" y1="-248.221" x2="-262.478" y2="1179.1" gradientUnits="userSpaceOnUse">
<stop stop-color="white"/>
<stop offset="0.488096" stop-color="white" stop-opacity="0"/>
<stop offset="1" stop-color="white"/>
</linearGradient>
</defs>
</svg>
