<svg width="567" height="656" viewBox="0 0 567 656" fill="none" xmlns="http://www.w3.org/2000/svg">
<g clip-path="url(#clip0_1_2031)">
<rect x="0.855347" y="0.619629" width="565.928" height="654.765" rx="45.3019" fill="white"/>
<path d="M61.2255 56.1811C60.186 57.1796 58.7361 57.6789 56.8759 57.6789C55.0156 57.6789 53.5658 57.1796 52.5262 56.1811C51.4867 55.1689 50.9669 53.7464 50.9669 51.9135V42.7629H53.1623V51.934C53.1623 53.1924 53.4769 54.1431 54.106 54.7859C54.7489 55.4288 55.6722 55.7502 56.8759 55.7502C58.0795 55.7502 58.996 55.4288 59.6252 54.7859C60.268 54.1431 60.5895 53.1924 60.5895 51.934V42.7629H62.7848V51.9135C62.7848 53.7464 62.265 55.1689 61.2255 56.1811ZM70.2877 46.538C71.4503 46.538 72.3599 46.8663 73.0165 47.5228C73.673 48.1657 74.0013 49.0822 74.0013 50.2721V57.3711H71.9496V50.5594C71.9496 49.0822 71.2041 48.3435 69.7132 48.3435C69.0293 48.3435 68.4138 48.6034 67.8667 49.1232C67.3195 49.6566 67.046 50.4158 67.046 51.4006V57.3711H64.9943V46.7842H66.9639V48.3641C67.7709 47.1467 68.8788 46.538 70.2877 46.538ZM78.387 45.2865H76.2943V43.0911H78.387V45.2865ZM78.3665 57.3711H76.3148V46.7842H78.3665V57.3711ZM88.5207 48.3435V46.7842H90.4904V61.3925H88.4387V55.9349C87.6453 57.0565 86.5032 57.6173 85.0123 57.6173C83.5351 57.6173 82.3587 57.118 81.4833 56.1195C80.6079 55.121 80.1702 53.7737 80.1702 52.0777C80.1702 50.3816 80.6079 49.0343 81.4833 48.0358C82.3587 47.0373 83.5351 46.538 85.0123 46.538C86.5579 46.538 87.7274 47.1399 88.5207 48.3435ZM82.304 52.1597C82.304 53.336 82.5844 54.2456 83.1452 54.8885C83.706 55.5314 84.4583 55.8528 85.4021 55.8528C86.3733 55.8528 87.1324 55.5177 87.6795 54.8475C88.2266 54.2046 88.5002 53.2813 88.5002 52.0777C88.5002 50.8877 88.2266 49.9576 87.6795 49.2873C87.1324 48.6308 86.3733 48.3025 85.4021 48.3025C84.4583 48.3025 83.706 48.6445 83.1452 49.3284C82.5844 50.0123 82.304 50.9561 82.304 52.1597ZM99.76 52.7547V46.7842H101.812V57.3711H99.842V55.7913C99.035 57.0086 97.9271 57.6173 96.5183 57.6173C95.3556 57.6173 94.446 57.289 93.7895 56.6325C93.1329 55.9759 92.8046 55.0595 92.8046 53.8832V46.7842H94.8564V53.5959C94.8564 55.0732 95.6018 55.8118 97.0927 55.8118C97.845 55.8118 98.4742 55.5451 98.9803 55.0116C99.5001 54.4645 99.76 53.7122 99.76 52.7547ZM113.686 52.1597V52.7547H105.705C105.801 53.7943 106.108 54.5808 106.628 55.1142C107.148 55.634 107.852 55.8939 108.742 55.8939C110.082 55.8939 110.957 55.3057 111.368 54.1294H113.44C113.153 55.21 112.592 56.0648 111.758 56.694C110.937 57.3095 109.918 57.6173 108.7 57.6173C107.182 57.6173 105.958 57.1112 105.028 56.099C104.098 55.0868 103.633 53.7464 103.633 52.0777C103.633 50.4089 104.098 49.0685 105.028 48.0563C105.958 47.0441 107.169 46.538 108.659 46.538C110.219 46.538 111.45 47.0646 112.353 48.1178C113.242 49.1711 113.686 50.5184 113.686 52.1597ZM108.659 48.2615C107.852 48.2615 107.189 48.5077 106.669 49.0001C106.163 49.4925 105.849 50.2038 105.726 51.1339H111.573C111.477 50.2721 111.169 49.5814 110.65 49.0616C110.144 48.5282 109.48 48.2615 108.659 48.2615ZM128.209 56.099C127.238 57.1112 125.973 57.6173 124.413 57.6173C122.854 57.6173 121.589 57.1112 120.618 56.099C119.646 55.0868 119.161 53.7464 119.161 52.0777C119.161 50.3953 119.646 49.048 120.618 48.0358C121.575 47.0373 122.84 46.538 124.413 46.538C125.986 46.538 127.251 47.0373 128.209 48.0358C129.166 49.0343 129.645 50.3816 129.645 52.0777C129.645 53.7601 129.166 55.1005 128.209 56.099ZM122.136 54.8475C122.697 55.5177 123.456 55.8528 124.413 55.8528C125.371 55.8528 126.123 55.5177 126.67 54.8475C127.231 54.1773 127.511 53.254 127.511 52.0777C127.511 50.9013 127.231 49.9781 126.67 49.3078C126.123 48.6376 125.371 48.3025 124.413 48.3025C123.456 48.3025 122.697 48.6376 122.136 49.3078C121.575 49.9781 121.295 50.9013 121.295 52.0777C121.295 53.254 121.575 54.1773 122.136 54.8475ZM136.953 46.538C138.431 46.538 139.607 47.0373 140.482 48.0358C141.358 49.0343 141.795 50.3816 141.795 52.0777C141.795 53.7601 141.358 55.1005 140.482 56.099C139.593 57.1112 138.417 57.6173 136.953 57.6173C135.449 57.6173 134.3 57.0428 133.506 55.8939V61.3925H131.455V46.7842H133.424V48.3846C134.218 47.1535 135.394 46.538 136.953 46.538ZM134.307 54.8475C134.854 55.5177 135.606 55.8528 136.563 55.8528C137.521 55.8528 138.28 55.5109 138.841 54.827C139.388 54.1567 139.662 53.2129 139.662 51.9956C139.662 50.8193 139.388 49.9097 138.841 49.2668C138.294 48.6239 137.535 48.3025 136.563 48.3025C135.62 48.3025 134.867 48.6308 134.307 49.2873C133.746 49.9712 133.465 50.9013 133.465 52.0777C133.465 53.254 133.746 54.1773 134.307 54.8475ZM153.158 52.1597V52.7547H145.177C145.272 53.7943 145.58 54.5808 146.1 55.1142C146.62 55.634 147.324 55.8939 148.213 55.8939C149.554 55.8939 150.429 55.3057 150.839 54.1294H152.911C152.624 55.21 152.063 56.0648 151.229 56.694C150.408 57.3095 149.389 57.6173 148.172 57.6173C146.654 57.6173 145.43 57.1112 144.499 56.099C143.569 55.0868 143.104 53.7464 143.104 52.0777C143.104 50.4089 143.569 49.0685 144.499 48.0563C145.43 47.0441 146.64 46.538 148.131 46.538C149.69 46.538 150.921 47.0646 151.824 48.1178C152.713 49.1711 153.158 50.5184 153.158 52.1597ZM148.131 48.2615C147.324 48.2615 146.661 48.5077 146.141 49.0001C145.635 49.4925 145.32 50.2038 145.197 51.1339H151.044C150.949 50.2721 150.641 49.5814 150.121 49.0616C149.615 48.5282 148.952 48.2615 148.131 48.2615ZM160.271 46.538C161.433 46.538 162.343 46.8663 163 47.5228C163.656 48.1657 163.984 49.0822 163.984 50.2721V57.3711H161.933V50.5594C161.933 49.0822 161.187 48.3435 159.696 48.3435C159.012 48.3435 158.397 48.6034 157.85 49.1232C157.303 49.6566 157.029 50.4158 157.029 51.4006V57.3711H154.977V46.7842H156.947V48.3641C157.754 47.1467 158.862 46.538 160.271 46.538Z" fill="black"/>
<rect x="34.828" y="45.9216" width="10.4576" height="10.4576" rx="5.22878" fill="#6430A7"/>
<path d="M219.049 47.1946V42.7629H221.162V57.3711H218.639L214.145 50.2927C212.832 48.2409 211.882 46.6748 211.293 45.5942C211.348 47.2219 211.375 49.6703 211.375 52.9394V57.3711H209.242V42.7629H211.765L216.279 49.8413C217.496 51.7699 218.447 53.3429 219.131 54.5602C219.076 52.9189 219.049 50.4636 219.049 47.1946ZM232.14 56.099C231.169 57.1112 229.904 57.6173 228.345 57.6173C226.785 57.6173 225.52 57.1112 224.549 56.099C223.578 55.0868 223.092 53.7464 223.092 52.0777C223.092 50.3953 223.578 49.048 224.549 48.0358C225.507 47.0373 226.772 46.538 228.345 46.538C229.918 46.538 231.183 47.0373 232.14 48.0358C233.098 49.0343 233.577 50.3816 233.577 52.0777C233.577 53.7601 233.098 55.1005 232.14 56.099ZM226.067 54.8475C226.628 55.5177 227.387 55.8528 228.345 55.8528C229.302 55.8528 230.055 55.5177 230.602 54.8475C231.162 54.1773 231.443 53.254 231.443 52.0777C231.443 50.9013 231.162 49.9781 230.602 49.3078C230.055 48.6376 229.302 48.3025 228.345 48.3025C227.387 48.3025 226.628 48.6376 226.067 49.3078C225.507 49.9781 225.226 50.9013 225.226 52.0777C225.226 53.254 225.507 54.1773 226.067 54.8475ZM239.832 46.7842V48.4666H237.698V54.827C237.698 55.1416 237.787 55.3741 237.965 55.5245C238.156 55.6613 238.471 55.7297 238.909 55.7297H239.832V57.3711C239.38 57.4121 238.963 57.4326 238.58 57.4326C237.582 57.4326 236.843 57.2412 236.364 56.8582C235.886 56.4752 235.646 55.8597 235.646 55.0116V48.4666H233.943V46.7842H235.646V43.7477H237.698V46.7842H239.832ZM254.18 56.099C253.209 57.1112 251.944 57.6173 250.385 57.6173C248.825 57.6173 247.56 57.1112 246.589 56.099C245.618 55.0868 245.132 53.7464 245.132 52.0777C245.132 50.3953 245.618 49.048 246.589 48.0358C247.546 47.0373 248.812 46.538 250.385 46.538C251.958 46.538 253.223 47.0373 254.18 48.0358C255.138 49.0343 255.617 50.3816 255.617 52.0777C255.617 53.7601 255.138 55.1005 254.18 56.099ZM248.107 54.8475C248.668 55.5177 249.427 55.8528 250.385 55.8528C251.342 55.8528 252.094 55.5177 252.642 54.8475C253.202 54.1773 253.483 53.254 253.483 52.0777C253.483 50.9013 253.202 49.9781 252.642 49.3078C252.094 48.6376 251.342 48.3025 250.385 48.3025C249.427 48.3025 248.668 48.6376 248.107 49.3078C247.546 49.9781 247.266 50.9013 247.266 52.0777C247.266 53.254 247.546 54.1773 248.107 54.8475ZM262.925 46.538C264.402 46.538 265.578 47.0373 266.454 48.0358C267.329 49.0343 267.767 50.3816 267.767 52.0777C267.767 53.7601 267.329 55.1005 266.454 56.099C265.565 57.1112 264.388 57.6173 262.925 57.6173C261.42 57.6173 260.271 57.0428 259.478 55.8939V61.3925H257.426V46.7842H259.396V48.3846C260.189 47.1535 261.365 46.538 262.925 46.538ZM260.278 54.8475C260.825 55.5177 261.577 55.8528 262.535 55.8528C263.492 55.8528 264.251 55.5109 264.812 54.827C265.359 54.1567 265.633 53.2129 265.633 51.9956C265.633 50.8193 265.359 49.9097 264.812 49.2668C264.265 48.6239 263.506 48.3025 262.535 48.3025C261.591 48.3025 260.839 48.6308 260.278 49.2873C259.717 49.9712 259.437 50.9013 259.437 52.0777C259.437 53.254 259.717 54.1773 260.278 54.8475ZM279.129 52.1597V52.7547H271.148C271.244 53.7943 271.551 54.5808 272.071 55.1142C272.591 55.634 273.295 55.8939 274.184 55.8939C275.525 55.8939 276.4 55.3057 276.811 54.1294H278.883C278.596 55.21 278.035 56.0648 277.2 56.694C276.38 57.3095 275.361 57.6173 274.143 57.6173C272.625 57.6173 271.401 57.1112 270.471 56.099C269.541 55.0868 269.076 53.7464 269.076 52.0777C269.076 50.4089 269.541 49.0685 270.471 48.0563C271.401 47.0441 272.611 46.538 274.102 46.538C275.662 46.538 276.893 47.0646 277.795 48.1178C278.685 49.1711 279.129 50.5184 279.129 52.1597ZM274.102 48.2615C273.295 48.2615 272.632 48.5077 272.112 49.0001C271.606 49.4925 271.292 50.2038 271.168 51.1339H277.016C276.92 50.2721 276.612 49.5814 276.093 49.0616C275.586 48.5282 274.923 48.2615 274.102 48.2615ZM286.242 46.538C287.405 46.538 288.314 46.8663 288.971 47.5228C289.627 48.1657 289.956 49.0822 289.956 50.2721V57.3711H287.904V50.5594C287.904 49.0822 287.159 48.3435 285.668 48.3435C284.984 48.3435 284.368 48.6034 283.821 49.1232C283.274 49.6566 283 50.4158 283 51.4006V57.3711H280.949V46.7842H282.918V48.3641C283.725 47.1467 284.833 46.538 286.242 46.538Z" fill="black"/>
<rect x="195.233" y="45.9216" width="10.4576" height="10.4576" rx="5.22878" fill="#CEA7FF"/>
<path d="M237.225 341.152C234.664 341.152 232.388 340.713 230.396 339.836C228.416 338.958 226.851 337.737 225.701 336.172C224.551 334.607 223.94 332.799 223.869 330.748H230.556C230.615 331.732 230.942 332.591 231.534 333.327C232.127 334.05 232.916 334.613 233.9 335.016C234.884 335.419 235.986 335.621 237.208 335.621C238.512 335.621 239.668 335.395 240.676 334.945C241.683 334.483 242.472 333.842 243.041 333.024C243.61 332.206 243.889 331.263 243.877 330.196C243.889 329.094 243.604 328.122 243.023 327.28C242.442 326.438 241.6 325.78 240.498 325.306C239.407 324.831 238.091 324.594 236.55 324.594H233.331V319.508H236.55C237.818 319.508 238.927 319.288 239.875 318.85C240.836 318.411 241.589 317.795 242.134 317C242.679 316.194 242.946 315.263 242.934 314.208C242.946 313.176 242.715 312.281 242.241 311.522C241.778 310.752 241.12 310.153 240.267 309.726C239.425 309.299 238.435 309.086 237.297 309.086C236.182 309.086 235.151 309.288 234.202 309.691C233.254 310.094 232.489 310.669 231.908 311.416C231.327 312.151 231.019 313.028 230.983 314.048H224.634C224.681 312.009 225.268 310.218 226.395 308.677C227.533 307.124 229.05 305.914 230.947 305.049C232.844 304.171 234.973 303.733 237.332 303.733C239.763 303.733 241.873 304.189 243.663 305.102C245.466 306.003 246.859 307.219 247.843 308.748C248.827 310.278 249.319 311.967 249.319 313.817C249.331 315.868 248.726 317.587 247.505 318.974C246.296 320.361 244.707 321.268 242.739 321.695V321.98C245.3 322.336 247.262 323.284 248.625 324.825C250.001 326.355 250.683 328.258 250.671 330.534C250.671 332.574 250.09 334.4 248.928 336.012C247.778 337.613 246.189 338.869 244.161 339.782C242.146 340.695 239.834 341.152 237.225 341.152ZM255.116 333.896V328.649L270.57 304.231H274.946V311.7H272.278L261.874 328.187V328.471H283.447V333.896H255.116ZM272.491 340.654V332.295L272.562 329.947V304.231H278.787V340.654H272.491ZM301.199 341.152C298.638 341.152 296.362 340.713 294.37 339.836C292.39 338.958 290.825 337.737 289.674 336.172C288.524 334.607 287.914 332.799 287.843 330.748H294.53C294.589 331.732 294.915 332.591 295.508 333.327C296.101 334.05 296.889 334.613 297.873 335.016C298.857 335.419 299.96 335.621 301.181 335.621C302.485 335.621 303.641 335.395 304.649 334.945C305.657 334.483 306.445 333.842 307.015 333.024C307.584 332.206 307.862 331.263 307.85 330.196C307.862 329.094 307.578 328.122 306.997 327.28C306.416 326.438 305.574 325.78 304.471 325.306C303.381 324.831 302.064 324.594 300.523 324.594H297.304V319.508H300.523C301.792 319.508 302.9 319.288 303.849 318.85C304.809 318.411 305.562 317.795 306.108 317C306.653 316.194 306.92 315.263 306.908 314.208C306.92 313.176 306.688 312.281 306.214 311.522C305.752 310.752 305.094 310.153 304.24 309.726C303.398 309.299 302.408 309.086 301.27 309.086C300.156 309.086 299.124 309.288 298.176 309.691C297.227 310.094 296.462 310.669 295.881 311.416C295.3 312.151 294.992 313.028 294.957 314.048H288.607C288.655 312.009 289.242 310.218 290.368 308.677C291.506 307.124 293.024 305.914 294.921 305.049C296.818 304.171 298.946 303.733 301.306 303.733C303.736 303.733 305.847 304.189 307.637 305.102C309.439 306.003 310.832 307.219 311.816 308.748C312.8 310.278 313.293 311.967 313.293 313.817C313.304 315.868 312.7 317.587 311.478 318.974C310.269 320.361 308.68 321.268 306.712 321.695V321.98C309.273 322.336 311.235 323.284 312.599 324.825C313.974 326.355 314.656 328.258 314.644 330.534C314.644 332.574 314.063 334.4 312.901 336.012C311.751 337.613 310.162 338.869 308.135 339.782C306.119 340.695 303.807 341.152 301.199 341.152ZM320.103 340.654V304.231H326.701V320.966H327.146L341.356 304.231H349.412L335.327 320.575L349.537 340.654H341.605L330.738 325.039L326.701 329.805V340.654H320.103Z" fill="black"/>
<path d="M247.274 166.561C246.402 161.821 249.572 157.261 254.351 156.621C285.11 152.504 316.447 154.562 346.392 162.705C376.24 170.821 404.001 184.789 427.961 203.705C431.799 206.735 432.124 212.377 428.814 215.985L391.454 256.718C388.298 260.157 383.003 260.459 379.3 257.628C363.623 245.642 345.623 236.756 326.325 231.508C307.051 226.268 286.919 224.776 267.092 227.089C262.387 227.638 257.947 224.567 257.09 219.91L247.274 166.561Z" fill="#6430A7"/>
<path d="M440.594 226.009C443.989 222.807 449.321 222.856 452.505 226.258C470.441 245.417 484.724 267.525 494.664 291.559C504.55 315.46 509.968 340.845 510.69 366.535C510.824 371.311 506.883 375.141 502.105 375.086L445.457 374.432C440.679 374.377 436.884 370.456 436.654 365.684C435.869 349.385 432.271 333.307 425.99 318.121C419.729 302.983 410.905 288.982 399.899 276.683C396.638 273.039 396.691 267.415 400.253 264.055L440.594 226.009Z" fill="#A763FF"/>
<path d="M128.414 231.164C124.755 227.92 124.507 222.273 128.019 218.861C153.855 193.761 185.629 175.111 220.589 164.529C225.106 163.162 229.792 165.853 231.068 170.393L245.772 222.703C247.081 227.36 244.305 232.167 239.701 233.662C218.121 240.666 198.442 252.277 182.131 267.632C178.733 270.831 173.435 271.084 169.948 267.992L128.414 231.164Z" fill="#CEA7FF"/>
<path d="M68.2546 370.081C63.4769 370.026 59.6354 366.106 59.8932 361.335C62.2184 318.3 77.6916 276.878 104.357 242.318C107.209 238.621 112.518 238.06 116.197 240.926L160.109 275.139C163.964 278.143 164.539 283.732 161.637 287.673C145.506 309.586 135.918 335.371 133.929 362.192C133.576 366.957 129.68 370.79 124.903 370.735L68.2546 370.081Z" fill="#EAD9FF"/>
<path d="M190.579 380.459V377.906H208.405V380.459H200.931V401.674H198.053V380.459H190.579ZM216.479 402.045C214.87 402.045 213.458 401.662 212.243 400.896C211.036 400.13 210.092 399.059 209.411 397.682C208.738 396.304 208.402 394.695 208.402 392.854C208.402 390.997 208.738 389.376 209.411 387.991C210.092 386.606 211.036 385.53 212.243 384.765C213.458 383.999 214.87 383.616 216.479 383.616C218.088 383.616 219.497 383.999 220.704 384.765C221.918 385.53 222.862 386.606 223.535 387.991C224.216 389.376 224.557 390.997 224.557 392.854C224.557 394.695 224.216 396.304 223.535 397.682C222.862 399.059 221.918 400.13 220.704 400.896C219.497 401.662 218.088 402.045 216.479 402.045ZM216.479 399.585C217.702 399.585 218.707 399.271 219.497 398.645C220.286 398.018 220.87 397.194 221.249 396.173C221.628 395.152 221.818 394.045 221.818 392.854C221.818 391.662 221.628 390.552 221.249 389.523C220.87 388.494 220.286 387.662 219.497 387.028C218.707 386.393 217.702 386.076 216.479 386.076C215.257 386.076 214.251 386.393 213.462 387.028C212.672 387.662 212.088 388.494 211.709 389.523C211.33 390.552 211.141 391.662 211.141 392.854C211.141 394.045 211.33 395.152 211.709 396.173C212.088 397.194 212.672 398.018 213.462 398.645C214.251 399.271 215.257 399.585 216.479 399.585ZM235.836 383.848V386.169H226.598V383.848H235.836ZM229.291 379.577H232.03V396.567C232.03 397.341 232.142 397.921 232.366 398.308C232.598 398.687 232.892 398.943 233.248 399.074C233.612 399.198 233.995 399.26 234.397 399.26C234.699 399.26 234.947 399.244 235.14 399.213C235.333 399.175 235.488 399.144 235.604 399.121L236.161 401.581C235.976 401.651 235.716 401.72 235.384 401.79C235.051 401.867 234.629 401.906 234.119 401.906C233.345 401.906 232.587 401.74 231.844 401.407C231.109 401.074 230.498 400.567 230.01 399.887C229.531 399.206 229.291 398.347 229.291 397.31V379.577ZM244.548 402.092C243.419 402.092 242.394 401.879 241.473 401.453C240.552 401.02 239.821 400.397 239.279 399.585C238.738 398.765 238.467 397.774 238.467 396.614C238.467 395.593 238.668 394.765 239.071 394.13C239.473 393.488 240.011 392.985 240.684 392.621C241.357 392.258 242.1 391.987 242.912 391.809C243.732 391.623 244.556 391.476 245.384 391.368C246.467 391.229 247.345 391.124 248.018 391.055C248.699 390.977 249.195 390.85 249.504 390.672C249.821 390.494 249.98 390.184 249.98 389.743V389.65C249.98 388.505 249.666 387.616 249.04 386.981C248.421 386.347 247.481 386.03 246.22 386.03C244.912 386.03 243.887 386.316 243.144 386.888C242.401 387.461 241.879 388.072 241.577 388.722L238.978 387.794C239.442 386.71 240.061 385.867 240.835 385.264C241.616 384.652 242.467 384.227 243.388 383.987C244.316 383.739 245.229 383.616 246.127 383.616C246.699 383.616 247.357 383.685 248.1 383.824C248.85 383.956 249.574 384.231 250.27 384.648C250.974 385.066 251.558 385.697 252.022 386.54C252.487 387.384 252.719 388.513 252.719 389.929V401.674H249.98V399.26H249.841C249.655 399.647 249.345 400.061 248.912 400.502C248.479 400.943 247.902 401.318 247.183 401.627C246.463 401.937 245.585 402.092 244.548 402.092ZM244.966 399.631C246.049 399.631 246.962 399.418 247.705 398.993C248.456 398.567 249.02 398.018 249.4 397.345C249.786 396.672 249.98 395.964 249.98 395.221V392.714C249.864 392.854 249.608 392.981 249.214 393.097C248.827 393.206 248.378 393.302 247.868 393.387C247.365 393.465 246.873 393.534 246.394 393.596C245.922 393.651 245.539 393.697 245.245 393.736C244.533 393.828 243.868 393.979 243.249 394.188C242.637 394.389 242.142 394.695 241.763 395.105C241.392 395.507 241.206 396.057 241.206 396.753C241.206 397.705 241.558 398.424 242.262 398.912C242.974 399.391 243.875 399.631 244.966 399.631ZM259.803 377.906V401.674H257.064V377.906H259.803ZM274.05 401.674H271.033L279.76 377.906H282.731L291.459 401.674H288.441L281.339 381.666H281.153L274.05 401.674ZM275.164 392.389H287.327V394.943H275.164V392.389ZM301.378 402.045C299.706 402.045 298.267 401.651 297.06 400.861C295.853 400.072 294.925 398.985 294.275 397.6C293.625 396.215 293.3 394.633 293.3 392.854C293.3 391.043 293.633 389.445 294.298 388.061C294.971 386.668 295.908 385.581 297.107 384.799C298.314 384.01 299.722 383.616 301.331 383.616C302.585 383.616 303.714 383.848 304.72 384.312C305.726 384.776 306.55 385.426 307.192 386.262C307.834 387.097 308.233 388.072 308.387 389.186H305.648C305.44 388.374 304.975 387.654 304.256 387.028C303.544 386.393 302.585 386.076 301.378 386.076C300.31 386.076 299.374 386.354 298.569 386.912C297.772 387.461 297.149 388.238 296.701 389.244C296.26 390.242 296.039 391.415 296.039 392.761C296.039 394.138 296.256 395.337 296.689 396.358C297.13 397.38 297.749 398.173 298.546 398.738C299.35 399.302 300.294 399.585 301.378 399.585C302.089 399.585 302.735 399.461 303.316 399.213C303.896 398.966 304.387 398.61 304.79 398.146C305.192 397.682 305.478 397.124 305.648 396.475H308.387C308.233 397.527 307.85 398.475 307.238 399.318C306.635 400.153 305.834 400.819 304.836 401.314C303.846 401.801 302.693 402.045 301.378 402.045ZM319.49 383.848V386.169H310.252V383.848H319.49ZM312.945 379.577H315.684V396.567C315.684 397.341 315.796 397.921 316.02 398.308C316.252 398.687 316.546 398.943 316.902 399.074C317.266 399.198 317.649 399.26 318.051 399.26C318.353 399.26 318.6 399.244 318.794 399.213C318.987 399.175 319.142 399.144 319.258 399.121L319.815 401.581C319.629 401.651 319.37 401.72 319.038 401.79C318.705 401.867 318.283 401.906 317.773 401.906C316.999 401.906 316.241 401.74 315.498 401.407C314.763 401.074 314.152 400.567 313.664 399.887C313.184 399.206 312.945 398.347 312.945 397.31V379.577ZM322.956 401.674V383.848H325.695V401.674H322.956ZM324.349 380.877C323.815 380.877 323.355 380.695 322.968 380.331C322.589 379.968 322.399 379.53 322.399 379.02C322.399 378.509 322.589 378.072 322.968 377.708C323.355 377.345 323.815 377.163 324.349 377.163C324.883 377.163 325.34 377.345 325.719 377.708C326.105 378.072 326.299 378.509 326.299 379.02C326.299 379.53 326.105 379.968 325.719 380.331C325.34 380.695 324.883 380.877 324.349 380.877ZM344.635 383.848L338.043 401.674H335.258L328.666 383.848H331.637L336.557 398.053H336.743L341.664 383.848H344.635ZM347.596 401.674V383.848H350.335V401.674H347.596ZM348.989 380.877C348.455 380.877 347.995 380.695 347.608 380.331C347.229 379.968 347.039 379.53 347.039 379.02C347.039 378.509 347.229 378.072 347.608 377.708C347.995 377.345 348.455 377.163 348.989 377.163C349.523 377.163 349.979 377.345 350.358 377.708C350.745 378.072 350.939 378.509 350.939 379.02C350.939 379.53 350.745 379.968 350.358 380.331C349.979 380.695 349.523 380.877 348.989 380.877ZM362.451 383.848V386.169H353.213V383.848H362.451ZM355.905 379.577H358.644V396.567C358.644 397.341 358.756 397.921 358.981 398.308C359.213 398.687 359.507 398.943 359.863 399.074C360.226 399.198 360.609 399.26 361.012 399.26C361.313 399.26 361.561 399.244 361.754 399.213C361.948 399.175 362.103 399.144 362.219 399.121L362.776 401.581C362.59 401.651 362.331 401.72 361.998 401.79C361.665 401.867 361.244 401.906 360.733 401.906C359.959 401.906 359.201 401.74 358.458 401.407C357.723 401.074 357.112 400.567 356.625 399.887C356.145 399.206 355.905 398.347 355.905 397.31V379.577ZM367.681 408.359C367.217 408.359 366.803 408.32 366.439 408.243C366.076 408.173 365.824 408.103 365.685 408.034L366.381 405.62C367.047 405.79 367.635 405.852 368.145 405.805C368.656 405.759 369.109 405.531 369.503 405.121C369.905 404.718 370.273 404.065 370.606 403.159L371.116 401.767L364.524 383.848H367.495L372.416 398.053H372.602L377.523 383.848H380.494L372.927 404.273C372.586 405.194 372.165 405.956 371.662 406.56C371.159 407.171 370.575 407.624 369.909 407.918C369.252 408.212 368.509 408.359 367.681 408.359Z" fill="#A1A1A1"/>
<path d="M51.3433 539.277C48.1088 539.277 45.5993 538.552 43.8147 537.102C42.0525 535.652 41.1602 533.577 41.1379 530.878H45.5881C45.6104 532.574 46.1123 533.789 47.0938 534.525C48.0977 535.262 49.5588 535.63 51.4772 535.63C53.0387 535.63 54.2321 535.34 55.0574 534.76C55.8828 534.157 56.2955 533.299 56.2955 532.183C56.2955 531.246 55.9386 530.532 55.2247 530.042C54.5332 529.551 53.2617 529.116 51.4102 528.737L49.4026 528.335C44.2943 527.376 41.7402 524.967 41.7402 521.108C41.7402 519.056 42.5209 517.427 44.0824 516.223C45.6439 514.996 47.8077 514.382 50.5737 514.382C53.719 514.382 56.0947 515.051 57.7008 516.39C59.3292 517.728 60.188 519.602 60.2773 522.011H55.8939C55.8047 520.651 55.3474 519.647 54.5221 519C53.719 518.353 52.4252 518.029 50.6407 518.029C49.2576 518.029 48.198 518.286 47.4619 518.799C46.7258 519.312 46.3577 520.037 46.3577 520.974C46.3577 521.933 46.6923 522.669 47.3615 523.182C48.053 523.695 49.2688 524.13 51.0087 524.487L53.0833 524.889C55.8716 525.447 57.8793 526.283 59.1062 527.398C60.3553 528.491 60.9799 530.008 60.9799 531.949C60.9799 534.269 60.1323 536.076 58.4369 537.37C56.7416 538.641 54.3771 539.277 51.3433 539.277ZM72.0203 521.476V524.688H68.6074V534.024C68.6074 534.581 68.7523 534.972 69.0423 535.195C69.3546 535.418 69.8677 535.529 70.5815 535.529H72.0203V538.741C71.1057 538.831 70.3696 538.875 69.8119 538.875C67.9381 538.875 66.5663 538.53 65.6963 537.838C64.8486 537.124 64.4248 535.998 64.4248 534.459V524.688H61.748V521.476H64.4248V516.457H68.6074V521.476H72.0203ZM89.9164 538.741H85.7004C85.4996 538.385 85.3435 537.682 85.232 536.633C84.072 538.306 82.2205 539.143 79.6775 539.143C77.7814 539.143 76.2646 538.686 75.1269 537.771C74.0116 536.857 73.4539 535.585 73.4539 533.957C73.4539 530.811 75.6623 529.016 80.0791 528.569L82.689 528.335C83.5589 528.224 84.1835 528.023 84.5628 527.733C84.942 527.421 85.1316 526.963 85.1316 526.361C85.1316 525.625 84.8862 525.09 84.3955 524.755C83.927 524.398 83.124 524.22 81.9863 524.22C80.7594 524.22 79.8783 524.432 79.3429 524.855C78.8076 525.257 78.4953 525.96 78.406 526.963H74.2569C74.5023 523.037 77.0899 521.074 82.0198 521.074C86.8158 521.074 89.2138 522.803 89.2138 526.261V535.462C89.2138 536.979 89.448 538.072 89.9164 538.741ZM80.6813 536.132C81.9975 536.132 83.0682 535.775 83.8935 535.061C84.7189 534.325 85.1316 533.276 85.1316 531.916V530.343C84.7301 530.7 84.072 530.934 83.1574 531.046L80.8821 531.313C79.7668 531.447 78.9637 531.715 78.473 532.116C78.0045 532.496 77.7703 533.053 77.7703 533.789C77.7703 534.525 78.0157 535.105 78.5064 535.529C79.0195 535.931 79.7445 536.132 80.6813 536.132ZM100.906 521.476V524.688H97.4931V534.024C97.4931 534.581 97.6381 534.972 97.9281 535.195C98.2404 535.418 98.7535 535.529 99.4673 535.529H100.906V538.741C99.9915 538.831 99.2554 538.875 98.6977 538.875C96.8239 538.875 95.452 538.53 94.5821 537.838C93.7344 537.124 93.3106 535.998 93.3106 534.459V524.688H90.6337V521.476H93.3106V516.457H97.4931V521.476H100.906ZM107.557 519.234H103.408V515.286H107.557V519.234ZM107.591 538.741H103.375V521.476H107.591V538.741ZM117.781 539.21C112.739 539.21 110.107 537.225 109.884 533.254H114C114.111 534.325 114.457 535.083 115.037 535.529C115.639 535.975 116.576 536.198 117.848 536.198C120.123 536.198 121.261 535.507 121.261 534.124C121.261 533.499 121.015 533.02 120.524 532.685C120.034 532.351 119.152 532.072 117.881 531.849L115.907 531.514C112.137 530.889 110.252 529.149 110.252 526.294C110.252 524.666 110.877 523.394 112.126 522.48C113.375 521.543 115.137 521.074 117.413 521.074C122.342 521.074 124.885 523.026 125.042 526.93H121.06C121.015 525.904 120.692 525.179 120.089 524.755C119.487 524.309 118.595 524.086 117.413 524.086C115.405 524.086 114.401 524.755 114.401 526.093C114.401 526.673 114.624 527.131 115.07 527.465C115.516 527.778 116.253 528.023 117.279 528.201L119.454 528.536C121.55 528.915 123.067 529.518 124.004 530.343C124.963 531.168 125.443 532.317 125.443 533.789C125.443 535.529 124.774 536.868 123.435 537.805C122.097 538.741 120.212 539.21 117.781 539.21ZM136.425 521.476V524.688H133.012V534.024C133.012 534.581 133.157 534.972 133.447 535.195C133.759 535.418 134.273 535.529 134.986 535.529H136.425V538.741C135.511 538.831 134.774 538.875 134.217 538.875C132.343 538.875 130.971 538.53 130.101 537.838C129.253 537.124 128.83 535.998 128.83 534.459V524.688H126.153V521.476H128.83V516.457H133.012V521.476H136.425ZM143.076 519.234H138.927V515.286H143.076V519.234ZM143.11 538.741H138.894V521.476H143.11V538.741ZM154.27 539.143C151.727 539.143 149.664 538.318 148.08 536.667C146.518 535.038 145.738 532.852 145.738 530.109C145.738 527.343 146.518 525.145 148.08 523.517C149.619 521.889 151.682 521.074 154.27 521.074C156.523 521.074 158.363 521.677 159.791 522.881C161.219 524.063 162.055 525.67 162.301 527.7H158.085C157.884 526.696 157.449 525.926 156.78 525.391C156.11 524.855 155.274 524.588 154.27 524.588C152.954 524.588 151.917 525.067 151.158 526.026C150.422 526.963 150.054 528.324 150.054 530.109C150.054 531.893 150.433 533.265 151.192 534.224C151.95 535.161 152.976 535.63 154.27 535.63C155.296 535.63 156.155 535.351 156.846 534.793C157.56 534.213 157.995 533.388 158.151 532.317H162.367C162.144 534.392 161.297 536.053 159.824 537.303C158.352 538.53 156.501 539.143 154.27 539.143ZM171.468 539.21C166.426 539.21 163.794 537.225 163.571 533.254H167.687C167.798 534.325 168.144 535.083 168.724 535.529C169.326 535.975 170.263 536.198 171.535 536.198C173.81 536.198 174.948 535.507 174.948 534.124C174.948 533.499 174.702 533.02 174.211 532.685C173.721 532.351 172.84 532.072 171.568 531.849L169.594 531.514C165.824 530.889 163.939 529.149 163.939 526.294C163.939 524.666 164.564 523.394 165.813 522.48C167.062 521.543 168.824 521.074 171.1 521.074C176.029 521.074 178.572 523.026 178.729 526.93H174.747C174.702 525.904 174.379 525.179 173.776 524.755C173.174 524.309 172.282 524.086 171.1 524.086C169.092 524.086 168.088 524.755 168.088 526.093C168.088 526.673 168.311 527.131 168.757 527.465C169.203 527.778 169.94 528.023 170.966 528.201L173.141 528.536C175.238 528.915 176.754 529.518 177.691 530.343C178.65 531.168 179.13 532.317 179.13 533.789C179.13 535.529 178.461 536.868 177.122 537.805C175.784 538.741 173.899 539.21 171.468 539.21Z" fill="black"/>
<path d="M52.1631 572.153L55.8873 562.948H58.4637V579.624H56.5431V574.284C56.5431 570.771 56.5665 567.937 56.6133 565.782C56.2386 566.812 55.7467 568.077 55.1377 569.576L51.0154 579.624H49.329L45.1833 569.576C44.5743 568.077 44.0824 566.812 43.7077 565.782C43.7545 567.937 43.7779 570.771 43.7779 574.284V579.624H41.8573V562.948H44.4337L48.2984 572.434C48.8762 573.855 49.5086 575.455 50.1956 577.235C51.1481 574.706 51.804 573.011 52.1631 572.153ZM71.1582 578.102H71.8375V579.624C71.5252 579.671 71.1817 579.695 70.8069 579.695C69.5421 579.695 68.8629 579.117 68.7692 577.961C67.926 579.257 66.6143 579.905 64.8342 579.905C63.5069 579.905 62.4608 579.601 61.6956 578.992C60.9461 578.367 60.5714 577.493 60.5714 576.369C60.5714 574.182 62.0626 572.933 65.045 572.621L66.7783 572.434C68.0431 572.293 68.6755 571.739 68.6755 570.771C68.6755 570.099 68.4647 569.615 68.0431 569.318C67.6371 569.022 66.9422 568.873 65.9585 568.873C64.9123 568.873 64.155 569.053 63.6865 569.412C63.2337 569.756 62.976 570.372 62.9136 571.263H61.0398C61.1959 568.592 62.8355 567.257 65.9585 567.257C68.9878 567.257 70.5024 568.428 70.5024 570.771V577.516C70.5024 577.907 70.721 578.102 71.1582 578.102ZM64.9279 578.313C65.9273 578.313 66.8017 578.008 67.5512 577.399C68.3007 576.806 68.6755 575.955 68.6755 574.846V573.417C68.3319 573.683 67.801 573.855 67.0828 573.933L65.3261 574.143C64.3111 574.268 63.585 574.503 63.1478 574.846C62.7262 575.19 62.5154 575.682 62.5154 576.322C62.5154 576.946 62.7184 577.438 63.1244 577.797C63.5304 578.141 64.1315 578.313 64.9279 578.313ZM83.6564 579.624H81.4781L77.4027 573.136L75.2478 575.151V579.624H73.374V562.948H75.2478V572.949L80.8457 567.538H83.3285L78.7377 571.895L83.6564 579.624ZM94.8933 573.581V574.237H85.7117C85.8054 575.549 86.1724 576.54 86.8126 577.212C87.4528 577.868 88.3272 578.196 89.4359 578.196C91.1067 578.196 92.1763 577.446 92.6447 575.947H94.5888C94.2609 577.165 93.6519 578.133 92.7618 578.851C91.8718 579.554 90.7475 579.905 89.389 579.905C87.7182 579.905 86.3676 579.335 85.337 578.196C84.2908 577.056 83.7677 575.518 83.7677 573.581C83.7677 571.676 84.283 570.146 85.3136 568.991C86.3285 567.835 87.6714 567.257 89.3422 567.257C91.0754 567.257 92.4339 567.858 93.4177 569.061C94.4014 570.263 94.8933 571.77 94.8933 573.581ZM89.3422 568.967C88.3585 568.967 87.5543 569.279 86.9297 569.904C86.3051 570.513 85.9147 571.395 85.7586 572.551H92.879C92.7853 571.489 92.4261 570.63 91.8015 569.974C91.1769 569.303 90.3572 568.967 89.3422 568.967ZM105.84 579.905C102.607 579.905 100.898 578.531 100.71 575.783H102.607C102.717 576.689 103.013 577.337 103.498 577.727C103.997 578.102 104.778 578.289 105.84 578.289C107.776 578.289 108.744 577.665 108.744 576.415C108.744 575.869 108.541 575.455 108.135 575.174C107.745 574.893 107.026 574.651 105.98 574.448L104.856 574.237C102.342 573.769 101.085 572.582 101.085 570.677C101.085 569.631 101.475 568.803 102.256 568.194C103.052 567.57 104.13 567.257 105.488 567.257C108.689 567.257 110.329 568.592 110.407 571.263H108.533C108.486 570.388 108.221 569.771 107.737 569.412C107.253 569.053 106.503 568.873 105.488 568.873C104.676 568.873 104.052 569.03 103.615 569.342C103.177 569.654 102.959 570.091 102.959 570.654C102.959 571.184 103.146 571.583 103.521 571.848C103.896 572.114 104.52 572.34 105.395 572.527L106.472 572.738C107.956 573.035 109.017 573.456 109.658 574.003C110.313 574.549 110.641 575.315 110.641 576.298C110.641 577.438 110.212 578.328 109.353 578.968C108.51 579.593 107.339 579.905 105.84 579.905ZM120.474 574.378V567.538H122.348V579.624H120.568V577.821C119.646 579.21 118.382 579.905 116.773 579.905C115.43 579.905 114.384 579.538 113.635 578.804C112.885 578.071 112.51 577.04 112.51 575.713V567.538H114.384V575.525C114.384 577.321 115.305 578.219 117.148 578.219C118.022 578.219 118.795 577.891 119.467 577.235C120.138 576.579 120.474 575.627 120.474 574.378ZM130.827 567.351C131.14 567.351 131.351 567.359 131.46 567.374V569.178H130.991C129.742 569.178 128.766 569.49 128.064 570.115C127.377 570.724 127.033 571.598 127.033 572.738V579.624H125.159V567.538H126.939V569.67C127.751 568.124 129.047 567.351 130.827 567.351ZM143.042 573.581V574.237H133.86C133.954 575.549 134.321 576.54 134.961 577.212C135.601 577.868 136.476 578.196 137.584 578.196C139.255 578.196 140.325 577.446 140.793 575.947H142.737C142.409 577.165 141.8 578.133 140.91 578.851C140.02 579.554 138.896 579.905 137.537 579.905C135.867 579.905 134.516 579.335 133.485 578.196C132.439 577.056 131.916 575.518 131.916 573.581C131.916 571.676 132.431 570.146 133.462 568.991C134.477 567.835 135.82 567.257 137.491 567.257C139.224 567.257 140.582 567.858 141.566 569.061C142.55 570.263 143.042 571.77 143.042 573.581ZM137.491 568.967C136.507 568.967 135.703 569.279 135.078 569.904C134.454 570.513 134.063 571.395 133.907 572.551H141.027C140.934 571.489 140.575 570.63 139.95 569.974C139.325 569.303 138.506 568.967 137.491 568.967ZM155.675 572.551L157.384 567.538H159.422L154.316 581.521C153.957 582.536 153.465 583.247 152.84 583.653C152.216 584.075 151.396 584.285 150.381 584.285C150.038 584.285 149.663 584.262 149.257 584.215V582.646H150.358C151.435 582.646 152.169 582.146 152.559 581.147L152.981 580.022L148.437 567.538H150.498L152.208 572.574C152.817 574.354 153.395 576.095 153.941 577.797C154.394 576.345 154.972 574.596 155.675 572.551ZM169.71 578.172C168.602 579.328 167.196 579.905 165.494 579.905C163.792 579.905 162.387 579.328 161.278 578.172C160.185 577.032 159.639 575.502 159.639 573.581C159.639 571.661 160.185 570.13 161.278 568.991C162.387 567.835 163.792 567.257 165.494 567.257C167.196 567.257 168.602 567.835 169.71 568.991C170.803 570.13 171.35 571.661 171.35 573.581C171.35 575.502 170.803 577.032 169.71 578.172ZM162.66 576.978C163.363 577.805 164.307 578.219 165.494 578.219C166.681 578.219 167.626 577.805 168.328 576.978C169.031 576.166 169.382 575.033 169.382 573.581C169.382 572.114 169.031 570.974 168.328 570.162C167.626 569.35 166.681 568.944 165.494 568.944C164.307 568.944 163.363 569.35 162.66 570.162C161.957 570.974 161.606 572.114 161.606 573.581C161.606 575.033 161.957 576.166 162.66 576.978ZM181.203 574.378V567.538H183.076V579.624H181.296V577.821C180.375 579.21 179.11 579.905 177.502 579.905C176.159 579.905 175.113 579.538 174.363 578.804C173.614 578.071 173.239 577.04 173.239 575.713V567.538H175.113V575.525C175.113 577.321 176.034 578.219 177.877 578.219C178.751 578.219 179.524 577.891 180.196 577.235C180.867 576.579 181.203 575.627 181.203 574.378ZM200.631 579.624H198.452L194.377 573.136L192.222 575.151V579.624H190.348V562.948H192.222V572.949L197.82 567.538H200.303L195.712 571.895L200.631 579.624ZM211.868 573.581V574.237H202.686C202.78 575.549 203.147 576.54 203.787 577.212C204.427 577.868 205.302 578.196 206.41 578.196C208.081 578.196 209.151 577.446 209.619 575.947H211.563C211.235 577.165 210.626 578.133 209.736 578.851C208.846 579.554 207.722 579.905 206.363 579.905C204.693 579.905 203.342 579.335 202.311 578.196C201.265 577.056 200.742 575.518 200.742 573.581C200.742 571.676 201.257 570.146 202.288 568.991C203.303 567.835 204.646 567.257 206.317 567.257C208.05 567.257 209.408 567.858 210.392 569.061C211.376 570.263 211.868 571.77 211.868 573.581ZM206.317 568.967C205.333 568.967 204.529 569.279 203.904 569.904C203.279 570.513 202.889 571.395 202.733 572.551H209.853C209.76 571.489 209.4 570.63 208.776 569.974C208.151 569.303 207.331 568.967 206.317 568.967ZM224.631 573.581V574.237H215.449C215.543 575.549 215.91 576.54 216.55 577.212C217.19 577.868 218.065 578.196 219.174 578.196C220.844 578.196 221.914 577.446 222.382 575.947H224.326C223.999 577.165 223.39 578.133 222.5 578.851C221.609 579.554 220.485 579.905 219.127 579.905C217.456 579.905 216.105 579.335 215.075 578.196C214.028 577.056 213.505 575.518 213.505 573.581C213.505 571.676 214.021 570.146 215.051 568.991C216.066 567.835 217.409 567.257 219.08 567.257C220.813 567.257 222.172 567.858 223.155 569.061C224.139 570.263 224.631 571.77 224.631 573.581ZM219.08 568.967C218.096 568.967 217.292 569.279 216.667 569.904C216.043 570.513 215.652 571.395 215.496 572.551H222.617C222.523 571.489 222.164 570.63 221.539 569.974C220.915 569.303 220.095 568.967 219.08 568.967ZM232.78 567.257C234.482 567.257 235.848 567.827 236.879 568.967C237.894 570.123 238.401 571.661 238.401 573.581C238.401 575.486 237.894 577.017 236.879 578.172C235.848 579.328 234.482 579.905 232.78 579.905C231.047 579.905 229.696 579.234 228.728 577.891V584.215H226.854V567.538H228.634V569.412C229.602 567.976 230.984 567.257 232.78 567.257ZM232.546 578.219C233.717 578.219 234.654 577.797 235.357 576.954C236.075 576.095 236.434 574.94 236.434 573.488C236.434 572.067 236.083 570.958 235.38 570.162C234.693 569.35 233.748 568.944 232.546 568.944C231.359 568.944 230.414 569.35 229.712 570.162C229.009 570.974 228.658 572.114 228.658 573.581C228.658 575.033 229.009 576.166 229.712 576.978C230.414 577.805 231.359 578.219 232.546 578.219ZM247.005 565.711H245.014V563.416H247.005V565.711ZM246.958 579.624H245.084V567.538H246.958V579.624ZM255.348 567.257C256.691 567.257 257.737 567.624 258.486 568.358C259.236 569.092 259.611 570.123 259.611 571.45V579.624H257.737V571.637C257.737 569.842 256.816 568.944 254.973 568.944C254.099 568.944 253.326 569.272 252.654 569.927C251.983 570.583 251.647 571.536 251.647 572.785V579.624H249.773V567.538H251.553V569.342C252.475 567.952 253.739 567.257 255.348 567.257ZM267.812 564.54H266.735C265.657 564.54 265.119 565.11 265.119 566.25V567.538H267.695V569.178H265.119V579.624H263.245V569.178H261.254V567.538H263.245V566.297C263.245 564.033 264.369 562.901 266.618 562.901C266.914 562.901 267.312 562.916 267.812 562.948V564.54ZM278.359 578.172C277.25 579.328 275.845 579.905 274.143 579.905C272.441 579.905 271.035 579.328 269.927 578.172C268.834 577.032 268.287 575.502 268.287 573.581C268.287 571.661 268.834 570.13 269.927 568.991C271.035 567.835 272.441 567.257 274.143 567.257C275.845 567.257 277.25 567.835 278.359 568.991C279.452 570.13 279.998 571.661 279.998 573.581C279.998 575.502 279.452 577.032 278.359 578.172ZM271.308 576.978C272.011 577.805 272.956 578.219 274.143 578.219C275.329 578.219 276.274 577.805 276.977 576.978C277.679 576.166 278.031 575.033 278.031 573.581C278.031 572.114 277.679 570.974 276.977 570.162C276.274 569.35 275.329 568.944 274.143 568.944C272.956 568.944 272.011 569.35 271.308 570.162C270.606 570.974 270.254 572.114 270.254 573.581C270.254 575.033 270.606 576.166 271.308 576.978ZM287.899 567.351C288.211 567.351 288.422 567.359 288.531 567.374V569.178H288.063C286.814 569.178 285.838 569.49 285.135 570.115C284.448 570.724 284.104 571.598 284.104 572.738V579.624H282.231V567.538H284.011V569.67C284.823 568.124 286.119 567.351 287.899 567.351ZM303 567.257C304.312 567.257 305.327 567.64 306.045 568.405C306.779 569.154 307.146 570.162 307.146 571.426V579.624H305.272V571.614C305.272 569.834 304.429 568.944 302.743 568.944C301.853 568.944 301.111 569.303 300.518 570.021C299.94 570.724 299.651 571.723 299.651 573.019V579.624H297.777V571.614C297.777 569.834 296.934 568.944 295.248 568.944C294.373 568.944 293.639 569.303 293.046 570.021C292.453 570.724 292.156 571.723 292.156 573.019V579.624H290.282V567.538H292.062V569.318C292.858 567.944 294.022 567.257 295.552 567.257C297.363 567.257 298.605 568.015 299.276 569.529C300.119 568.015 301.361 567.257 303 567.257ZM319.837 578.102H320.517V579.624C320.204 579.671 319.861 579.695 319.486 579.695C318.221 579.695 317.542 579.117 317.448 577.961C316.605 579.257 315.293 579.905 313.513 579.905C312.186 579.905 311.14 579.601 310.375 578.992C309.625 578.367 309.25 577.493 309.25 576.369C309.25 574.182 310.742 572.933 313.724 572.621L315.457 572.434C316.722 572.293 317.355 571.739 317.355 570.771C317.355 570.099 317.144 569.615 316.722 569.318C316.316 569.022 315.621 568.873 314.638 568.873C313.591 568.873 312.834 569.053 312.366 569.412C311.913 569.756 311.655 570.372 311.593 571.263H309.719C309.875 568.592 311.515 567.257 314.638 567.257C317.667 567.257 319.182 568.428 319.182 570.771V577.516C319.182 577.907 319.4 578.102 319.837 578.102ZM313.607 578.313C314.606 578.313 315.481 578.008 316.23 577.399C316.98 576.806 317.355 575.955 317.355 574.846V573.417C317.011 573.683 316.48 573.855 315.762 573.933L314.005 574.143C312.99 574.268 312.264 574.503 311.827 574.846C311.405 575.19 311.195 575.682 311.195 576.322C311.195 576.946 311.398 577.438 311.803 577.797C312.209 578.141 312.811 578.313 313.607 578.313ZM327.003 567.538V569.178H324.521V577.024C324.521 577.711 324.981 578.055 325.903 578.055H327.003V579.624C326.488 579.671 326.043 579.695 325.668 579.695C323.654 579.695 322.647 578.859 322.647 577.188V569.178H320.656V567.538H322.647V564.119H324.521V567.538H327.003ZM330.904 565.711H328.913V563.416H330.904V565.711ZM330.858 579.624H328.984V567.538H330.858V579.624ZM343.159 578.172C342.05 579.328 340.645 579.905 338.943 579.905C337.241 579.905 335.835 579.328 334.727 578.172C333.634 577.032 333.087 575.502 333.087 573.581C333.087 571.661 333.634 570.13 334.727 568.991C335.835 567.835 337.241 567.257 338.943 567.257C340.645 567.257 342.05 567.835 343.159 568.991C344.252 570.13 344.798 571.661 344.798 573.581C344.798 575.502 344.252 577.032 343.159 578.172ZM336.109 576.978C336.811 577.805 337.756 578.219 338.943 578.219C340.13 578.219 341.074 577.805 341.777 576.978C342.48 576.166 342.831 575.033 342.831 573.581C342.831 572.114 342.48 570.974 341.777 570.162C341.074 569.35 340.13 568.944 338.943 568.944C337.756 568.944 336.811 569.35 336.109 570.162C335.406 570.974 335.055 572.114 335.055 573.581C335.055 575.033 335.406 576.166 336.109 576.978ZM352.605 567.257C353.948 567.257 354.994 567.624 355.744 568.358C356.493 569.092 356.868 570.123 356.868 571.45V579.624H354.994V571.637C354.994 569.842 354.073 568.944 352.231 568.944C351.356 568.944 350.583 569.272 349.912 569.927C349.24 570.583 348.905 571.536 348.905 572.785V579.624H347.031V567.538H348.811V569.342C349.732 567.952 350.997 567.257 352.605 567.257ZM372.104 574.378V567.538H373.977V579.624H372.197V577.821C371.276 579.21 370.011 579.905 368.403 579.905C367.06 579.905 366.014 579.538 365.264 578.804C364.515 578.071 364.14 577.04 364.14 575.713V567.538H366.014V575.525C366.014 577.321 366.935 578.219 368.778 578.219C369.652 578.219 370.425 577.891 371.097 577.235C371.768 576.579 372.104 575.627 372.104 574.378ZM382.715 567.257C384.417 567.257 385.783 567.827 386.814 568.967C387.829 570.123 388.336 571.661 388.336 573.581C388.336 575.486 387.829 577.017 386.814 578.172C385.783 579.328 384.417 579.905 382.715 579.905C380.982 579.905 379.631 579.234 378.663 577.891V584.215H376.789V567.538H378.569V569.412C379.537 567.976 380.919 567.257 382.715 567.257ZM382.481 578.219C383.652 578.219 384.589 577.797 385.291 576.954C386.01 576.095 386.369 574.94 386.369 573.488C386.369 572.067 386.017 570.958 385.315 570.162C384.628 569.35 383.683 568.944 382.481 568.944C381.294 568.944 380.349 569.35 379.647 570.162C378.944 570.974 378.593 572.114 378.593 573.581C378.593 575.033 378.944 576.166 379.647 576.978C380.349 577.805 381.294 578.219 382.481 578.219ZM400.313 567.538V569.178H397.83V577.024C397.83 577.711 398.29 578.055 399.212 578.055H400.313V579.624C399.797 579.671 399.352 579.695 398.977 579.695C396.963 579.695 395.956 578.859 395.956 577.188V569.178H393.965V567.538H395.956V564.119H397.83V567.538H400.313ZM411.55 578.172C410.442 579.328 409.036 579.905 407.334 579.905C405.632 579.905 404.227 579.328 403.118 578.172C402.025 577.032 401.479 575.502 401.479 573.581C401.479 571.661 402.025 570.13 403.118 568.991C404.227 567.835 405.632 567.257 407.334 567.257C409.036 567.257 410.442 567.835 411.55 568.991C412.643 570.13 413.19 571.661 413.19 573.581C413.19 575.502 412.643 577.032 411.55 578.172ZM404.5 576.978C405.203 577.805 406.147 578.219 407.334 578.219C408.521 578.219 409.466 577.805 410.168 576.978C410.871 576.166 411.222 575.033 411.222 573.581C411.222 572.114 410.871 570.974 410.168 570.162C409.466 569.35 408.521 568.944 407.334 568.944C406.147 568.944 405.203 569.35 404.5 570.162C403.797 570.974 403.446 572.114 403.446 573.581C403.446 575.033 403.797 576.166 404.5 576.978ZM50.828 596.272V589.948H52.7018V606.624H50.9217V604.75C49.9536 606.187 48.5717 606.905 46.776 606.905C45.074 606.905 43.7155 606.328 42.7005 605.172C41.6699 604.017 41.1546 602.486 41.1546 600.581C41.1546 598.645 41.6699 597.107 42.7005 595.967C43.6998 594.827 45.0583 594.257 46.776 594.257C48.5092 594.257 49.8599 594.929 50.828 596.272ZM43.1221 600.675C43.1221 602.112 43.4734 603.228 44.1761 604.024C44.8788 604.821 45.8235 605.219 47.0102 605.219C48.1969 605.219 49.1416 604.805 49.8443 603.978C50.547 603.166 50.8983 602.033 50.8983 600.581C50.8983 599.145 50.547 598.013 49.8443 597.185C49.1416 596.357 48.1969 595.944 47.0102 595.944C45.8391 595.944 44.8944 596.373 44.1761 597.232C43.4734 598.075 43.1221 599.223 43.1221 600.675ZM65.3942 605.102H66.0734V606.624C65.7611 606.671 65.4176 606.695 65.0428 606.695C63.778 606.695 63.0988 606.117 63.0051 604.961C62.1619 606.257 60.8502 606.905 59.0701 606.905C57.7429 606.905 56.6967 606.601 55.9315 605.992C55.182 605.367 54.8073 604.493 54.8073 603.369C54.8073 601.182 56.2985 599.933 59.2809 599.621L61.0142 599.434C62.279 599.293 62.9114 598.739 62.9114 597.771C62.9114 597.099 62.7006 596.615 62.279 596.318C61.873 596.022 61.1781 595.873 60.1944 595.873C59.1482 595.873 58.3909 596.053 57.9224 596.412C57.4696 596.756 57.212 597.372 57.1495 598.263H55.2757C55.4319 595.592 57.0714 594.257 60.1944 594.257C63.2237 594.257 64.7383 595.428 64.7383 597.771V604.516C64.7383 604.907 64.9569 605.102 65.3942 605.102ZM59.1638 605.313C60.1632 605.313 61.0376 605.008 61.7871 604.399C62.5366 603.806 62.9114 602.955 62.9114 601.846V600.417C62.5679 600.683 62.037 600.855 61.3187 600.933L59.562 601.143C58.547 601.268 57.8209 601.503 57.3837 601.846C56.9621 602.19 56.7513 602.682 56.7513 603.322C56.7513 603.946 56.9543 604.438 57.3603 604.797C57.7663 605.141 58.3675 605.313 59.1638 605.313ZM72.5603 594.538V596.178H70.0775V604.024C70.0775 604.711 70.5382 605.055 71.4594 605.055H72.5603V606.624C72.045 606.671 71.6 606.695 71.2252 606.695C69.2109 606.695 68.2037 605.859 68.2037 604.188V596.178H66.2128V594.538H68.2037V591.119H70.0775V594.538H72.5603ZM84.8519 600.581V601.237H75.6703C75.764 602.549 76.131 603.54 76.7712 604.212C77.4114 604.868 78.2858 605.196 79.3945 605.196C81.0653 605.196 82.1349 604.446 82.6033 602.947H84.5474C84.2195 604.165 83.6105 605.133 82.7204 605.851C81.8304 606.554 80.7061 606.905 79.3476 606.905C77.6768 606.905 76.3262 606.335 75.2956 605.196C74.2494 604.056 73.7263 602.518 73.7263 600.581C73.7263 598.676 74.2416 597.146 75.2721 595.991C76.2871 594.835 77.63 594.257 79.3008 594.257C81.034 594.257 82.3925 594.858 83.3763 596.061C84.36 597.263 84.8519 598.77 84.8519 600.581ZM79.3008 595.967C78.317 595.967 77.5129 596.279 76.8883 596.904C76.2637 597.513 75.8733 598.395 75.7172 599.551H82.8376C82.7439 598.489 82.3847 597.63 81.7601 596.974C81.1355 596.303 80.3158 595.967 79.3008 595.967ZM96.8289 594.538V596.178H94.3461V604.024C94.3461 604.711 94.8068 605.055 95.7281 605.055H96.8289V606.624C96.3136 606.671 95.8686 606.695 95.4938 606.695C93.4795 606.695 92.4724 605.859 92.4724 604.188V596.178H90.4815V594.538H92.4724V591.119H94.3461V594.538H96.8289ZM108.066 605.172C106.958 606.328 105.553 606.905 103.85 606.905C102.148 606.905 100.743 606.328 99.6345 605.172C98.5414 604.032 97.9949 602.502 97.9949 600.581C97.9949 598.661 98.5414 597.13 99.6345 595.991C100.743 594.835 102.148 594.257 103.85 594.257C105.553 594.257 106.958 594.835 108.066 595.991C109.16 597.13 109.706 598.661 109.706 600.581C109.706 602.502 109.16 604.032 108.066 605.172ZM101.016 603.978C101.719 604.805 102.664 605.219 103.85 605.219C105.037 605.219 105.982 604.805 106.685 603.978C107.387 603.166 107.739 602.033 107.739 600.581C107.739 599.114 107.387 597.974 106.685 597.162C105.982 596.35 105.037 595.944 103.85 595.944C102.664 595.944 101.719 596.35 101.016 597.162C100.314 597.974 99.9624 599.114 99.9624 600.581C99.9624 602.033 100.314 603.166 101.016 603.978ZM118.319 592.711H116.329V590.416H118.319V592.711ZM118.273 606.624H116.399V594.538H118.273V606.624ZM126.662 594.257C128.005 594.257 129.051 594.624 129.801 595.358C130.55 596.092 130.925 597.123 130.925 598.45V606.624H129.051V598.637C129.051 596.842 128.13 595.944 126.288 595.944C125.413 595.944 124.64 596.272 123.969 596.927C123.297 597.583 122.962 598.536 122.962 599.785V606.624H121.088V594.538H122.868V596.342C123.789 594.952 125.054 594.257 126.662 594.257ZM138.749 606.905C137.078 606.905 135.728 606.328 134.697 605.172C133.667 604.017 133.151 602.486 133.151 600.581C133.151 598.645 133.667 597.107 134.697 595.967C135.696 594.827 137.047 594.257 138.749 594.257C140.186 594.257 141.365 594.648 142.286 595.428C143.207 596.209 143.762 597.279 143.949 598.637H142.005C141.864 597.778 141.49 597.115 140.881 596.646C140.287 596.178 139.577 595.944 138.749 595.944C137.641 595.944 136.758 596.35 136.102 597.162C135.447 597.958 135.119 599.098 135.119 600.581C135.119 602.049 135.447 603.189 136.102 604.001C136.774 604.813 137.656 605.219 138.749 605.219C139.577 605.219 140.295 604.977 140.904 604.493C141.513 604.009 141.888 603.337 142.028 602.479H143.949C143.746 603.837 143.168 604.914 142.216 605.711C141.279 606.507 140.123 606.905 138.749 606.905ZM151.619 594.351C151.932 594.351 152.142 594.359 152.252 594.374V596.178H151.783C150.534 596.178 149.558 596.49 148.856 597.115C148.168 597.724 147.825 598.598 147.825 599.738V606.624H145.951V594.538H147.731V596.67C148.543 595.124 149.839 594.351 151.619 594.351ZM163.834 600.581V601.237H154.652C154.746 602.549 155.113 603.54 155.753 604.212C156.393 604.868 157.268 605.196 158.376 605.196C160.047 605.196 161.117 604.446 161.585 602.947H163.529C163.201 604.165 162.592 605.133 161.702 605.851C160.812 606.554 159.688 606.905 158.329 606.905C156.659 606.905 155.308 606.335 154.277 605.196C153.231 604.056 152.708 602.518 152.708 600.581C152.708 598.676 153.223 597.146 154.254 595.991C155.269 594.835 156.612 594.257 158.282 594.257C160.016 594.257 161.374 594.858 162.358 596.061C163.342 597.263 163.834 598.77 163.834 600.581ZM158.282 595.967C157.299 595.967 156.495 596.279 155.87 596.904C155.245 597.513 154.855 598.395 154.699 599.551H161.819C161.726 598.489 161.366 597.63 160.742 596.974C160.117 596.303 159.297 595.967 158.282 595.967ZM175.827 605.102H176.506V606.624C176.194 606.671 175.85 606.695 175.475 606.695C174.211 606.695 173.531 606.117 173.438 604.961C172.594 606.257 171.283 606.905 169.503 606.905C168.175 606.905 167.129 606.601 166.364 605.992C165.615 605.367 165.24 604.493 165.24 603.369C165.24 601.182 166.731 599.933 169.713 599.621L171.447 599.434C172.712 599.293 173.344 598.739 173.344 597.771C173.344 597.099 173.133 596.615 172.712 596.318C172.306 596.022 171.611 595.873 170.627 595.873C169.581 595.873 168.823 596.053 168.355 596.412C167.902 596.756 167.645 597.372 167.582 598.263H165.708C165.864 595.592 167.504 594.257 170.627 594.257C173.656 594.257 175.171 595.428 175.171 597.771V604.516C175.171 604.907 175.389 605.102 175.827 605.102ZM169.596 605.313C170.596 605.313 171.47 605.008 172.22 604.399C172.969 603.806 173.344 602.955 173.344 601.846V600.417C173 600.683 172.47 600.855 171.751 600.933L169.995 601.143C168.98 601.268 168.253 601.503 167.816 601.846C167.395 602.19 167.184 602.682 167.184 603.322C167.184 603.946 167.387 604.438 167.793 604.797C168.199 605.141 168.8 605.313 169.596 605.313ZM182.42 606.905C179.187 606.905 177.478 605.531 177.29 602.783H179.187C179.297 603.689 179.593 604.337 180.077 604.727C180.577 605.102 181.358 605.289 182.42 605.289C184.356 605.289 185.324 604.665 185.324 603.415C185.324 602.869 185.121 602.455 184.715 602.174C184.325 601.893 183.606 601.651 182.56 601.448L181.436 601.237C178.922 600.769 177.665 599.582 177.665 597.677C177.665 596.631 178.055 595.803 178.836 595.194C179.632 594.57 180.71 594.257 182.068 594.257C185.269 594.257 186.909 595.592 186.987 598.263H185.113C185.066 597.388 184.801 596.771 184.317 596.412C183.833 596.053 183.083 595.873 182.068 595.873C181.256 595.873 180.632 596.03 180.195 596.342C179.757 596.654 179.539 597.091 179.539 597.654C179.539 598.184 179.726 598.583 180.101 598.848C180.476 599.114 181.1 599.34 181.975 599.527L183.052 599.738C184.536 600.035 185.597 600.456 186.238 601.003C186.893 601.549 187.221 602.315 187.221 603.298C187.221 604.438 186.792 605.328 185.933 605.968C185.09 606.593 183.919 606.905 182.42 606.905ZM199.63 600.581V601.237H190.449C190.543 602.549 190.909 603.54 191.55 604.212C192.19 604.868 193.064 605.196 194.173 605.196C195.844 605.196 196.913 604.446 197.382 602.947H199.326C198.998 604.165 198.389 605.133 197.499 605.851C196.609 606.554 195.485 606.905 194.126 606.905C192.455 606.905 191.105 606.335 190.074 605.196C189.028 604.056 188.505 602.518 188.505 600.581C188.505 598.676 189.02 597.146 190.051 595.991C191.066 594.835 192.408 594.257 194.079 594.257C195.813 594.257 197.171 594.858 198.155 596.061C199.138 597.263 199.63 598.77 199.63 600.581ZM194.079 595.967C193.096 595.967 192.291 596.279 191.667 596.904C191.042 597.513 190.652 598.395 190.496 599.551H197.616C197.522 598.489 197.163 597.63 196.539 596.974C195.914 596.303 195.094 595.967 194.079 595.967ZM212.474 599.902L214.465 594.538H216.479L211.725 606.624H209.757L205.026 594.538H207.063L209.054 599.925C210.038 602.564 210.608 604.126 210.764 604.61C211.045 603.782 211.615 602.213 212.474 599.902ZM219.808 592.711H217.818V590.416H219.808V592.711ZM219.762 606.624H217.888V594.538H219.762V606.624ZM226.84 606.905C223.607 606.905 221.898 605.531 221.71 602.783H223.607C223.717 603.689 224.013 604.337 224.498 604.727C224.997 605.102 225.778 605.289 226.84 605.289C228.776 605.289 229.744 604.665 229.744 603.415C229.744 602.869 229.541 602.455 229.135 602.174C228.745 601.893 228.027 601.651 226.98 601.448L225.856 601.237C223.342 600.769 222.085 599.582 222.085 597.677C222.085 596.631 222.475 595.803 223.256 595.194C224.053 594.57 225.13 594.257 226.488 594.257C229.689 594.257 231.329 595.592 231.407 598.263H229.533C229.486 597.388 229.221 596.771 228.737 596.412C228.253 596.053 227.503 595.873 226.488 595.873C225.676 595.873 225.052 596.03 224.615 596.342C224.177 596.654 223.959 597.091 223.959 597.654C223.959 598.184 224.146 598.583 224.521 598.848C224.896 599.114 225.52 599.34 226.395 599.527L227.472 599.738C228.956 600.035 230.017 600.456 230.658 601.003C231.313 601.549 231.641 602.315 231.641 603.298C231.641 604.438 231.212 605.328 230.353 605.968C229.51 606.593 228.339 606.905 226.84 606.905ZM235.431 592.711H233.44V590.416H235.431V592.711ZM235.384 606.624H233.51V594.538H235.384V606.624ZM243.493 594.538V596.178H241.01V604.024C241.01 604.711 241.471 605.055 242.392 605.055H243.493V606.624C242.978 606.671 242.533 606.695 242.158 606.695C240.143 606.695 239.136 605.859 239.136 604.188V596.178H237.145V594.538H239.136V591.119H241.01V594.538H243.493ZM254.73 605.172C253.622 606.328 252.216 606.905 250.514 606.905C248.812 606.905 247.407 606.328 246.298 605.172C245.205 604.032 244.659 602.502 244.659 600.581C244.659 598.661 245.205 597.13 246.298 595.991C247.407 594.835 248.812 594.257 250.514 594.257C252.216 594.257 253.622 594.835 254.73 595.991C255.823 597.13 256.37 598.661 256.37 600.581C256.37 602.502 255.823 604.032 254.73 605.172ZM247.68 603.978C248.383 604.805 249.328 605.219 250.514 605.219C251.701 605.219 252.646 604.805 253.349 603.978C254.051 603.166 254.403 602.033 254.403 600.581C254.403 599.114 254.051 597.974 253.349 597.162C252.646 596.35 251.701 595.944 250.514 595.944C249.328 595.944 248.383 596.35 247.68 597.162C246.978 597.974 246.626 599.114 246.626 600.581C246.626 602.033 246.978 603.166 247.68 603.978ZM264.271 594.351C264.583 594.351 264.794 594.359 264.903 594.374V596.178H264.435C263.185 596.178 262.209 596.49 261.507 597.115C260.82 597.724 260.476 598.598 260.476 599.738V606.624H258.602V594.538H260.383V596.67C261.195 595.124 262.491 594.351 264.271 594.351ZM281.227 605.102H281.906V606.624C281.594 606.671 281.251 606.695 280.876 606.695C279.611 606.695 278.932 606.117 278.838 604.961C277.995 606.257 276.683 606.905 274.903 606.905C273.576 606.905 272.53 606.601 271.765 605.992C271.015 605.367 270.64 604.493 270.64 603.369C270.64 601.182 272.131 599.933 275.114 599.621L276.847 599.434C278.112 599.293 278.744 598.739 278.744 597.771C278.744 597.099 278.534 596.615 278.112 596.318C277.706 596.022 277.011 595.873 276.027 595.873C274.981 595.873 274.224 596.053 273.755 596.412C273.303 596.756 273.045 597.372 272.982 598.263H271.109C271.265 595.592 272.904 594.257 276.027 594.257C279.057 594.257 280.571 595.428 280.571 597.771V604.516C280.571 604.907 280.79 605.102 281.227 605.102ZM274.997 605.313C275.996 605.313 276.871 605.008 277.62 604.399C278.37 603.806 278.744 602.955 278.744 601.846V600.417C278.401 600.683 277.87 600.855 277.152 600.933L275.395 601.143C274.38 601.268 273.654 601.503 273.217 601.846C272.795 602.19 272.584 602.682 272.584 603.322C272.584 603.946 272.787 604.438 273.193 604.797C273.599 605.141 274.2 605.313 274.997 605.313ZM288.455 606.905C286.784 606.905 285.434 606.328 284.403 605.172C283.373 604.017 282.857 602.486 282.857 600.581C282.857 598.645 283.373 597.107 284.403 595.967C285.403 594.827 286.753 594.257 288.455 594.257C289.892 594.257 291.071 594.648 291.992 595.428C292.913 596.209 293.468 597.279 293.655 598.637H291.711C291.57 597.778 291.196 597.115 290.587 596.646C289.993 596.178 289.283 595.944 288.455 595.944C287.347 595.944 286.464 596.35 285.809 597.162C285.153 597.958 284.825 599.098 284.825 600.581C284.825 602.049 285.153 603.189 285.809 604.001C286.48 604.813 287.362 605.219 288.455 605.219C289.283 605.219 290.001 604.977 290.61 604.493C291.219 604.009 291.594 603.337 291.734 602.479H293.655C293.452 603.837 292.874 604.914 291.922 605.711C290.985 606.507 289.829 606.905 288.455 606.905ZM300.493 594.538V596.178H298.01V604.024C298.01 604.711 298.471 605.055 299.392 605.055H300.493V606.624C299.978 606.671 299.533 606.695 299.158 606.695C297.144 606.695 296.137 605.859 296.137 604.188V596.178H294.146V594.538H296.137V591.119H298.01V594.538H300.493ZM304.394 592.711H302.403V590.416H304.394V592.711ZM304.347 606.624H302.474V594.538H304.347V606.624ZM313.208 599.902L315.199 594.538H317.213L312.459 606.624H310.491L305.76 594.538H307.798L309.789 599.925C310.772 602.564 311.342 604.126 311.498 604.61C311.779 603.782 312.349 602.213 313.208 599.902ZM320.543 592.711H318.552V590.416H320.543V592.711ZM320.496 606.624H318.622V594.538H320.496V606.624ZM328.605 594.538V596.178H326.122V604.024C326.122 604.711 326.582 605.055 327.504 605.055H328.605V606.624C328.089 606.671 327.644 606.695 327.27 606.695C325.255 606.695 324.248 605.859 324.248 604.188V596.178H322.257V594.538H324.248V591.119H326.122V594.538H328.605ZM336.534 599.551L338.244 594.538H340.282L335.176 608.521C334.817 609.536 334.325 610.247 333.7 610.653C333.075 611.075 332.256 611.285 331.241 611.285C330.897 611.285 330.522 611.262 330.116 611.215V609.646H331.217C332.295 609.646 333.029 609.146 333.419 608.147L333.841 607.022L329.297 594.538H331.358L333.068 599.574C333.677 601.354 334.254 603.095 334.801 604.797C335.254 603.345 335.831 601.596 336.534 599.551Z" fill="#868898"/>
</g>
<defs>
<clipPath id="clip0_1_2031">
<rect x="0.855347" y="0.619629" width="565.928" height="654.765" rx="45.3019" fill="white"/>
</clipPath>
</defs>
</svg>
