<svg width="369" height="590" viewBox="0 0 369 590" fill="none" xmlns="http://www.w3.org/2000/svg">
<g filter="url(#filter0_b_1_2053)">
<rect x="0.0855713" y="0.258301" width="368.511" height="588.96" rx="105.289" fill="white" fill-opacity="0.2"/>
<rect x="3.37585" y="3.54858" width="361.931" height="582.379" rx="101.999" stroke="url(#paint0_linear_1_2053)" stroke-width="6.58056"/>
<rect x="46.1442" y="56.1926" width="276.383" height="480.381" rx="59.225" fill="white" fill-opacity="0.36"/>
<path d="M115.808 271.022V268.165H131.521V287.157H128.929L128.347 280.174C125.666 285.394 121.187 288.004 114.909 288.004C109.618 288.004 105.386 286.188 102.212 282.555C99.0375 278.922 97.4504 274.178 97.4504 268.323C97.4504 262.469 99.0375 257.707 102.212 254.039C105.351 250.442 109.583 248.643 114.909 248.643C119.318 248.643 122.968 249.842 125.86 252.24C128.717 254.674 130.463 257.866 131.098 261.816H127.818C127.289 258.712 125.843 256.226 123.479 254.357C121.152 252.452 118.295 251.5 114.909 251.5C110.571 251.5 107.132 253.016 104.593 256.05C102.018 259.083 100.73 263.174 100.73 268.323C100.73 273.438 102.018 277.511 104.593 280.544C107.202 283.613 110.659 285.147 114.962 285.147C119.018 285.147 122.316 283.807 124.855 281.126C127.394 278.481 128.664 275.113 128.664 271.022H115.808ZM160.21 273.455V274.513H138.784C138.925 277.899 139.807 280.509 141.429 282.343C143.087 284.142 145.344 285.041 148.201 285.041C150.388 285.041 152.204 284.459 153.65 283.295C155.096 282.096 156.048 280.474 156.507 278.428H159.628C158.993 281.32 157.671 283.613 155.66 285.306C153.65 286.963 151.128 287.792 148.095 287.792C144.286 287.792 141.27 286.487 139.048 283.877C136.826 281.267 135.715 277.811 135.715 273.508C135.715 269.24 136.826 265.784 139.048 263.139C141.235 260.529 144.215 259.224 147.989 259.224C151.834 259.224 154.832 260.564 156.983 263.245C159.134 265.925 160.21 269.329 160.21 273.455ZM147.989 261.975C145.379 261.975 143.263 262.839 141.641 264.567C140.018 266.295 139.084 268.711 138.837 271.815H156.983C156.807 268.817 155.925 266.436 154.338 264.673C152.786 262.874 150.67 261.975 147.989 261.975ZM174.381 259.859V262.504H168.033V281.444C168.033 283.595 169.32 284.671 171.895 284.671C173.235 284.671 174.064 284.653 174.381 284.618V287.157C173.358 287.263 172.406 287.316 171.524 287.316C167.221 287.316 165.07 285.447 165.07 281.708V262.504H160.414V259.859H165.07V252.135H168.033V259.859H174.381Z" fill="white"/>
<path d="M112.899 347.229C107.784 347.229 103.817 346.082 100.995 343.79C98.2087 341.497 96.7979 338.217 96.7626 333.95H103.799C103.834 336.63 104.628 338.552 106.18 339.716C107.767 340.88 110.077 341.462 113.11 341.462C115.579 341.462 117.466 341.004 118.771 340.087C120.076 339.134 120.728 337.776 120.728 336.013C120.728 334.532 120.164 333.403 119.035 332.627C117.942 331.851 115.932 331.163 113.004 330.564L109.83 329.929C101.753 328.412 97.7149 324.603 97.7149 318.501C97.7149 315.257 98.9494 312.682 101.418 310.777C103.887 308.838 107.308 307.868 111.682 307.868C116.655 307.868 120.411 308.926 122.95 311.042C125.525 313.158 126.883 316.121 127.024 319.93H120.094C119.952 317.778 119.229 316.191 117.924 315.168C116.655 314.146 114.609 313.634 111.788 313.634C109.601 313.634 107.926 314.04 106.762 314.851C105.598 315.662 105.016 316.809 105.016 318.29C105.016 319.806 105.545 320.97 106.603 321.782C107.696 322.593 109.618 323.281 112.369 323.845L115.65 324.48C120.058 325.361 123.233 326.684 125.172 328.448C127.148 330.176 128.135 332.574 128.135 335.643C128.135 339.311 126.795 342.167 124.114 344.213C121.434 346.223 117.695 347.229 112.899 347.229ZM144.798 319.083V324.162H139.401V338.923C139.401 339.804 139.631 340.422 140.089 340.774C140.583 341.127 141.394 341.303 142.523 341.303H144.798V346.382C143.351 346.523 142.188 346.594 141.306 346.594C138.343 346.594 136.174 346.047 134.799 344.954C133.458 343.825 132.788 342.044 132.788 339.61V324.162H128.556V319.083H132.788V311.148H139.401V319.083H144.798ZM172.3 346.382H165.634C165.316 345.818 165.069 344.707 164.893 343.049C163.059 345.694 160.132 347.017 156.111 347.017C153.113 347.017 150.715 346.294 148.916 344.848C147.152 343.402 146.271 341.392 146.271 338.817C146.271 333.844 149.762 331.005 156.746 330.299L160.872 329.929C162.248 329.753 163.235 329.435 163.835 328.977C164.435 328.483 164.734 327.76 164.734 326.807C164.734 325.644 164.346 324.797 163.57 324.268C162.83 323.704 161.56 323.422 159.761 323.422C157.821 323.422 156.428 323.757 155.582 324.427C154.735 325.062 154.242 326.173 154.1 327.76H147.54C147.928 321.552 152.02 318.449 159.814 318.449C167.397 318.449 171.189 321.182 171.189 326.649V341.198C171.189 343.596 171.559 345.324 172.3 346.382ZM157.698 342.256C159.779 342.256 161.472 341.691 162.777 340.563C164.082 339.399 164.734 337.741 164.734 335.59V333.103C164.099 333.667 163.059 334.038 161.613 334.214L158.015 334.637C156.252 334.849 154.982 335.272 154.206 335.907C153.466 336.507 153.095 337.388 153.095 338.552C153.095 339.716 153.483 340.633 154.259 341.303C155.07 341.938 156.217 342.256 157.698 342.256ZM190.079 318.66C190.679 318.66 191.225 318.695 191.719 318.766V324.903H190.026C187.487 324.903 185.529 325.555 184.154 326.86C182.813 328.13 182.143 330.017 182.143 332.521V346.382H175.477V319.083H181.932V323.951C183.448 320.424 186.164 318.66 190.079 318.66ZM209.013 319.083V324.162H203.616V338.923C203.616 339.804 203.846 340.422 204.304 340.774C204.798 341.127 205.609 341.303 206.738 341.303H209.013V346.382C207.567 346.523 206.403 346.594 205.521 346.594C202.558 346.594 200.389 346.047 199.014 344.954C197.673 343.825 197.003 342.044 197.003 339.61V324.162H192.771V319.083H197.003V311.148H203.616V319.083H209.013ZM237.37 333.209V334.796H216.949C217.196 337.124 217.919 338.887 219.118 340.087C220.352 341.25 221.992 341.832 224.038 341.832C227.071 341.832 229.152 340.527 230.281 337.917H236.682C235.977 340.704 234.495 342.926 232.238 344.583C229.981 346.206 227.23 347.017 223.985 347.017C219.929 347.017 216.649 345.712 214.145 343.102C211.641 340.492 210.389 337.036 210.389 332.733C210.389 328.43 211.623 324.973 214.092 322.364C216.596 319.754 219.858 318.449 223.879 318.449C228.006 318.449 231.286 319.806 233.719 322.522C236.153 325.238 237.37 328.8 237.37 333.209ZM223.826 323.633C219.911 323.633 217.636 325.802 217.002 330.14H230.704C230.422 328.13 229.681 326.543 228.482 325.379C227.283 324.215 225.731 323.633 223.826 323.633ZM260.35 322.628V308.714H267.015V346.382H260.561V342.573C258.551 345.536 255.676 347.017 251.938 347.017C248.164 347.017 245.184 345.712 242.997 343.102C240.775 340.492 239.664 337.036 239.664 332.733C239.664 328.359 240.775 324.885 242.997 322.311C245.148 319.736 248.129 318.449 251.938 318.449C255.606 318.449 258.41 319.842 260.35 322.628ZM246.488 332.944C246.488 335.766 247.106 337.9 248.34 339.346C249.575 340.792 251.285 341.515 253.472 341.515C255.659 341.515 257.387 340.757 258.657 339.24C259.891 337.723 260.508 335.554 260.508 332.733C260.508 329.911 259.891 327.742 258.657 326.226C257.422 324.709 255.694 323.951 253.472 323.951C251.32 323.951 249.61 324.744 248.34 326.331C247.106 327.918 246.488 330.123 246.488 332.944Z" fill="white"/>
<path d="M219.204 256.899C219.204 255.809 218.32 254.925 217.23 254.925L199.463 254.925C198.372 254.925 197.489 255.809 197.489 256.899C197.489 257.989 198.372 258.873 199.463 258.873L215.256 258.873L215.256 274.667C215.256 275.757 216.14 276.641 217.23 276.641C218.32 276.641 219.204 275.757 219.204 274.667L219.204 256.899ZM189.014 287.908L218.626 258.295L215.834 255.503L186.222 285.116L189.014 287.908Z" fill="white"/>
</g>
<defs>
<filter id="filter0_b_1_2053" x="-45.9783" y="-45.8056" width="460.639" height="681.087" filterUnits="userSpaceOnUse" color-interpolation-filters="sRGB">
<feFlood flood-opacity="0" result="BackgroundImageFix"/>
<feGaussianBlur in="BackgroundImageFix" stdDeviation="23.0319"/>
<feComposite in2="SourceAlpha" operator="in" result="effect1_backgroundBlur_1_2053"/>
<feBlend mode="normal" in="SourceGraphic" in2="effect1_backgroundBlur_1_2053" result="shape"/>
</filter>
<linearGradient id="paint0_linear_1_2053" x1="538.627" y1="-294.222" x2="-497.107" y2="93.4111" gradientUnits="userSpaceOnUse">
<stop stop-color="white"/>
<stop offset="0.488096" stop-color="white" stop-opacity="0"/>
<stop offset="1" stop-color="white"/>
</linearGradient>
</defs>
</svg>
