<svg width="202" height="199" viewBox="0 0 202 199" fill="none" xmlns="http://www.w3.org/2000/svg">
<g opacity="0.77" filter="url(#filter0_b_2226_995)">
<ellipse cx="101" cy="99.5" rx="100" ry="98.5" fill="#D9D9D9" fill-opacity="0.2"/>
<path d="M101 198.334C156.408 198.334 201.334 154.089 201.334 99.5C201.334 44.9107 156.408 0.666 101 0.666C45.5917 0.666 0.665878 44.9107 0.665878 99.5C0.665878 154.089 45.5917 198.334 101 198.334Z" stroke="white" stroke-width="0.668"/>
</g>
<path d="M26.9089 120.624C23.0349 120.624 20.0449 119.766 17.9389 118.05C15.8329 116.334 14.7669 113.942 14.7409 110.874H21.1369C21.1629 112.59 21.6569 113.786 22.6189 114.462C23.6069 115.138 25.1149 115.476 27.1429 115.476C30.2889 115.476 31.8619 114.41 31.8619 112.278C31.8619 111.342 31.5109 110.653 30.8089 110.211C30.1329 109.743 28.8199 109.327 26.8699 108.963L24.6079 108.534C18.4199 107.494 15.3259 104.595 15.3259 99.837C15.3259 97.315 16.2619 95.313 18.1339 93.831C20.0319 92.349 22.7099 91.608 26.1679 91.608C29.8599 91.608 32.6809 92.388 34.6309 93.948C36.5809 95.508 37.6209 97.744 37.7509 100.656H31.5109C31.4329 99.304 30.9779 98.316 30.1459 97.692C29.3399 97.068 28.0529 96.756 26.2849 96.756C23.4509 96.756 22.0339 97.692 22.0339 99.564C22.0339 100.5 22.3719 101.215 23.0479 101.709C23.7499 102.203 24.9849 102.619 26.7529 102.957L29.0929 103.386C32.4469 103.984 34.8779 104.959 36.3859 106.311C37.9199 107.637 38.6869 109.483 38.6869 111.849C38.6869 114.683 37.6469 116.854 35.5669 118.362C33.4869 119.87 30.6009 120.624 26.9089 120.624ZM53.6781 111.108V99.876H59.7621V120H53.8341V117.153C52.2741 119.363 50.1681 120.468 47.5161 120.468C45.3841 120.468 43.6811 119.831 42.4071 118.557C41.1591 117.257 40.5351 115.424 40.5351 113.058V99.876H46.6191V111.849C46.6191 114.137 47.6981 115.281 49.8561 115.281C50.9481 115.281 51.8581 114.917 52.5861 114.189C53.3141 113.461 53.6781 112.434 53.6781 111.108ZM74.6994 99.408C77.4034 99.408 79.5484 100.357 81.1344 102.255C82.6944 104.153 83.4744 106.714 83.4744 109.938C83.4744 113.162 82.6944 115.723 81.1344 117.621C79.5484 119.519 77.4034 120.468 74.6994 120.468C72.0214 120.468 69.9934 119.415 68.6154 117.309V120H62.6874V92.232H68.7714V102.333C70.1494 100.383 72.1254 99.408 74.6994 99.408ZM73.0224 115.593C74.3744 115.593 75.4274 115.099 76.1814 114.111C76.9354 113.097 77.3124 111.654 77.3124 109.782C77.3124 106.116 75.8824 104.283 73.0224 104.283C70.1364 104.283 68.6934 106.168 68.6934 109.938C68.6934 113.708 70.1364 115.593 73.0224 115.593ZM105.969 92.232V98.121H92.1626V103.152H104.916V108.729H92.1626V120H85.5716V92.232H105.969ZM113.647 120H107.563V92.232H113.647V120ZM134.047 117.582C132.123 119.506 129.562 120.468 126.364 120.468C123.166 120.468 120.605 119.506 118.681 117.582C116.757 115.658 115.795 113.11 115.795 109.938C115.795 106.74 116.757 104.179 118.681 102.255C120.579 100.357 123.14 99.408 126.364 99.408C129.588 99.408 132.149 100.357 134.047 102.255C135.945 104.153 136.894 106.714 136.894 109.938C136.894 113.136 135.945 115.684 134.047 117.582ZM126.364 115.593C127.768 115.593 128.847 115.112 129.601 114.15C130.355 113.188 130.732 111.784 130.732 109.938C130.732 108.092 130.355 106.688 129.601 105.726C128.847 104.764 127.768 104.283 126.364 104.283C124.934 104.283 123.842 104.764 123.088 105.726C122.334 106.688 121.957 108.092 121.957 109.938C121.957 111.784 122.334 113.188 123.088 114.15C123.842 115.112 124.934 115.593 126.364 115.593ZM161.325 106.35L163.197 99.876H169.71L163.158 120H156.762L154.539 112.434C154.019 110.744 153.512 108.937 153.018 107.013C152.55 108.885 152.069 110.692 151.575 112.434L149.352 120H142.956L136.365 99.876H142.917L144.789 106.35C145.439 108.612 146.063 110.874 146.661 113.136C147.155 111.082 147.74 108.807 148.416 106.311L150.249 99.876H155.865L157.698 106.311C158.374 108.807 158.959 111.082 159.453 113.136C160.051 110.874 160.675 108.612 161.325 106.35Z" fill="white"/>
<circle cx="178.315" cy="112.315" r="8.315" fill="white"/>
<defs>
<filter id="filter0_b_2226_995" x="-3.66809" y="-3.66797" width="209.336" height="206.336" filterUnits="userSpaceOnUse" color-interpolation-filters="sRGB">
<feFlood flood-opacity="0" result="BackgroundImageFix"/>
<feGaussianBlur in="BackgroundImageFix" stdDeviation="2"/>
<feComposite in2="SourceAlpha" operator="in" result="effect1_backgroundBlur_2226_995"/>
<feBlend mode="normal" in="SourceGraphic" in2="effect1_backgroundBlur_2226_995" result="shape"/>
</filter>
</defs>
</svg>
