<svg width="148" height="99" viewBox="0 0 148 99" fill="none" xmlns="http://www.w3.org/2000/svg">
<path d="M95.2531 2.9849C96.9115 -0.994961 103.25 -0.994967 104.909 2.98489L110.3 15.9236C113.689 24.0567 120.91 30.4692 130.069 33.4788L144.639 38.2665C149.121 39.7392 149.121 45.3682 144.639 46.8409L130.069 51.6287C120.91 54.6382 113.689 61.0507 110.3 69.1838L104.909 82.1225C103.25 86.1024 96.9115 86.1024 95.2531 82.1225L89.8616 69.1838C86.4726 61.0507 79.2516 54.6382 70.0929 51.6287L55.5227 46.8409C51.041 45.3682 51.0409 39.7392 55.5226 38.2665L70.0929 33.4788C79.2515 30.4692 86.4726 24.0567 89.8616 15.9236L95.2531 2.9849Z" fill="white"/>
<path d="M26.5133 47.9409C27.5337 45.4922 31.4338 45.4922 32.4542 47.9409L35.7714 55.9018C37.8566 60.9059 42.2996 64.8514 47.9347 66.7031L56.8994 69.6489C59.6569 70.555 59.6569 74.0184 56.8994 74.9245L47.9347 77.8703C42.2996 79.722 37.8566 83.6674 35.7714 88.6715L32.4542 96.6324C31.4338 99.0811 27.5337 99.0811 26.5133 96.6324L23.1961 88.6716C21.1109 83.6674 16.6679 79.722 11.0328 77.8703L2.06811 74.9245C-0.689369 74.0184 -0.689373 70.555 2.06811 69.6489L11.0328 66.7031C16.6679 64.8514 21.1109 60.9059 23.1961 55.9018L26.5133 47.9409Z" fill="white"/>
<path d="M17.8579 3.34398C18.4033 2.03508 20.488 2.03508 21.0334 3.34398L22.8066 7.59928C23.9212 10.2741 26.296 12.3831 29.3082 13.3729L34.1001 14.9475C35.574 15.4318 35.574 17.2831 34.1001 17.7674L29.3082 19.342C26.2961 20.3318 23.9212 22.4408 22.8066 25.1156L21.0334 29.3709C20.488 30.6798 18.4033 30.6798 17.8579 29.3709L16.0847 25.1156C14.9701 22.4408 12.5953 20.3318 9.58313 19.342L4.79125 17.7674C3.3173 17.2831 3.3173 15.4318 4.79125 14.9475L9.58313 13.3729C12.5953 12.3831 14.9701 10.2741 16.0847 7.59929L17.8579 3.34398Z" fill="white"/>
</svg>
